<svg xmlns="http://www.w3.org/2000/svg" viewBox="0 0 611.15 653.29"><defs><style>.cls-1{fill:#c72225;}.cls-2{fill:#25ebe5;}.cls-3{fill:#fb9fa4;}.cls-4{fill:#7d091a;}.cls-5{fill:#fab4b0;}.cls-6{fill:#6c5373;}.cls-7{fill:#028e97;}.cls-8{fill:#f36a49;}.cls-9{fill:#f7f7dc;}.cls-10{fill:#7d5b7d;}.cls-11{fill:#fae5b7;}.cls-12{fill:#fbef04;}.cls-13{fill:#8c6889;}.cls-14{fill:#a77799;}.cls-15{fill:#d087a2;}.cls-16{fill:#11c5bd;}.cls-17{fill:#7ee8e4;}.cls-18{fill:#342c3e;}.cls-19{fill:#016063;}.cls-20{fill:#051e3e;}</style></defs><g id="Calque_2" data-name="Calque 2"><g id="Calque_2-2" data-name="Calque 2"><path class="cls-1" d="M344.22,89.88H334.1c-.4-13.79,3.74-5.27,4.09-13.27-4.09-5.46,3.77-13.93,4.19-10.36.69,6,4.86,10.34,14.26,15.18C354.48,81.31,344.78,80.85,344.22,89.88Z"/><path class="cls-2" d="M515.06,484c4.6,2.86,10.05,4.42,12.86,9.44,3.69,2.35,7.65,4.36,11,7.1,10.54,8.39,17.55,19.73,28.64,27.58,9,4.65,16.79,11.29,25,17.25.64-2,1.19-4,1.69-6-20.93-12.3-33.4-33.47-52.73-47.77-9.95-4.58-25.85-18.24-36.28-16.42C505.71,479.86,511.82,481.21,515.06,484Z"/><path class="cls-2" d="M587.16,557c-5.19-2.3-10.63-4.17-15.89-6.34,4.4,3.09,9.09,5.88,13.33,9.17A14.47,14.47,0,0,0,587.16,557Z"/><path class="cls-2" d="M568,565.06c2.14-.25,4.33-.51,6.47-.91-12.31-9.21-15.18-2.69-23.85-17.1L555,546c-9.79-8.25-24.13-10.44-34.77-17.37-18.17-10.83-36.6-22.24-57.13-28.07-5.52-1.6-11.56-2.83-15.94-7.25-7.35-.08-12.17-6.13-18.79-8-8.41-3.59-17-4.78-26-5.91-.31,1.36-.6,2.59-1,4.13l-3.23-5.81c-2,5.92-.34,10.6,2.22,15.78l3-.86c18.28,25.16,53.33,34,82.44,40.7,4.74.87,9.57,4,14.8.94,4.24,1.94,53.24,11.8,36.8,19-3.63-.06-4.64,2.06-6.14,4.82-2.19,3.57-6.26,7.14-9.63,9.58l-5.25-3c1.51,6.2.38,7.49-5.66,8.29-9.2,2.28-18,2.42-27.51,3.59a13,13,0,0,0,3.62,3.32c-21.32,8.16-43.33-3-65.58,13.06l0,1.57,6.69,3.52-1.4,1.64c10.23-3.21,21-2.27,31.48-4,10.38-3.21,20.57-8.36,31.82-6.84,7.84.67,17.61,5.25,22.55-3.24,7-19.35,17-22.85,36.06-15.54C554.45,566.82,561.19,565.84,568,565.06Z"/><path class="cls-3" d="M9,588.77C26.42,602,34.29,579.11,52.48,613.1c1,.82,3.05,2.2,2.56,3.58,23.14,29.29,44.83-8.39,87.69,15.66-9.42-16.81,3.71-10.77-24-19.54,0-.85.1-2,.16-3.15-10.85-1.68-22.34-4.43-32.68,1-8.15,20.26-18.94-.25-21.92-11.34-5.14-7.68-9.42-15.79-16.86-21.53-13.89-8-31.47-1.72-46.29.54C3.62,581.94,6,585.67,9,588.77Z"/><path class="cls-4" d="M318.57,66.1a1.23,1.23,0,0,0-.5-.2c-5.69-13.42-.66-24.39,14-26.81-.1.34-.14,1-.3,1-7.89,1.75-4.29,9.89-3.92,15.27.58,9.35-4.39,7.34,5,12.86l-1,.91C327.57,67.67,323,67,318.57,66.1Z"/><path class="cls-5" d="M335.28,39.32l-.06.23-1,.25-.63-.5c-1.3-13-.37-26.21-.68-39.3.46.83,1.32,1.64,1.33,2.48C334.84,14.72,333.44,27.22,335.28,39.32Z"/><path class="cls-6" d="M332.88,0c.2,12.48-.36,25,.43,37.46-.38-1-1.09-1.92-1.1-2.88C332.67,23.13,331,11.23,332.88,0Z"/><path class="cls-7" d="M421.42,574.49c-33.86,18.79-74.54,15.4-112.21,16.46-10.52-4-53.46-1.89-54.38-15.85-.56-8.05-4.11-14.42-11.2-18.6-5.61-.6-6.92,6.86-10.94,9.75a5.51,5.51,0,0,0,1.61,3c7.32,1.47,4.88-7.9,11.51-8.18,5.12,2.25,13.52,24,1.59,21.2l-1.72,1.79c4.55,3.37,9.15,6.5,14.62,8.15,0,.39-.07.78-.1,1.17-18,7.86-37.73,4-54.75-4.72h0c-.52,0-1.07-.24-1.53.1-.31,1.23-.62,2.46-.92,3.7,6.46,2.12,13.92,1.55,20.11,3.76,1.13,2.82,3.65,3,6.08,3.29,7.58,1.61,16.51,0,23.34,3.47,11.45,9.73,16.94,25.18,21.79,39.06,7.79,1.28,14.91,4.83,22.18,7.71,23.06,10.81,39.83-6.85,63.33-4.44,2.69-3.27,7.11-5.82,9-9.52-2.16-7.49,5.92-10.3,6.57-16.68-.49-7.06,1.64-13.67,4.08-20.19,1.68-2.68,5.42-1.23,7.84-.2a9.26,9.26,0,0,0,8.15-1c4.28-2.16,10.7-2.36,14.2-5.74,4-5.52,9.78-10.93,11.84-17.39Z"/><path class="cls-8" d="M544.45,251.12c.3-3.61.42-7.25.95-10.83.77-5.29.6-5.69-4.43-6.68-16.54-10.75-10.15-40.67-5.59-56.75l6.84-5.19c12.32,3.88,24.06,9.55,36,14.5,12.22,4.78,21.54,9.52,28.17,22-1-5.51-1.42-9.07-3.1-13.83,3,3.24,6.24,6.22,7.69,10.51-4.56,13.14-.57,27.3-2.33,41.13l-2.56-2.79-7.18,12.06c-14.37-.66-27.94-10.36-42.17-11.56C552.43,245.73,548.51,248.58,544.45,251.12Zm30-16.25a6.92,6.92,0,0,0,11.24,2.21c6.66-4.4-5-24.87-11.72-14.6C570.85,226.72,571.77,230.84,574.43,234.87Zm-11-14.75c-1.32-2.57-2.18-5.59-4.11-7.55-3.49-3.13-8.78-2.37-9.4,3.14C547.56,225.76,561.42,234.6,563.39,220.12Z"/><path class="cls-8" d="M362.5,86.21c6.58,6.19,11.65,14.81,19.72,19,7,12.9,10.37,17.35,9.64,32.38-1.59,8.66-48.9,10.74-58.07,10.73,2.4-8.83,1.61-24.29,14.19-23.8,7.44,0,2.38-7.45,9.31-9,10.67-4.16,10.44-10,21.27-1.41.4-.25.8-.5,1.19-.76-1.12-8.72-8.93-14.2-14-20.8-5.43-7.41-14.12-2.45-21.51-2.71,2.81-6.76.3-13.1,11.91-8.64C358.16,81.89,361,84.57,362.5,86.21Z"/><path class="cls-1" d="M394.18,152.7c.43,16.73-3.16,34.13-.11,50.52l-1.65.4,1.75,2.78c-1.64,3.3-1.33,6.85-1.29,10.46l-3.57-.67c-.48-.84-1-1.67-1.43-2.51a.41.41,0,0,0,0-.65c-.1-19.76-.23-39.53-.23-59.3C389.85,153.49,392,153,394.18,152.7Z"/><path class="cls-9" d="M603.28,194.31c1.68,4.77,2.11,8.31,3.1,13.83-6.63-12.45-16-17.19-28.17-22-11.93-4.95-23.67-10.62-36-14.5,2.3-.27,4.95-1.4,6.86-.65C567,178.87,586.55,184.12,603.28,194.31Z"/><path class="cls-1" d="M598.9,255.22l7.18-12.06,2.56,2.79c1.76-13.83-2.23-28,2.33-41.13-2.15,13.58,6.53,50.09-12.32,51.53Z"/><path class="cls-9" d="M394.17,206.4l-1.75-2.78c7.27-.3,14.2,5.07,21.16,7.09,5.76,1.34,6.56,6.08,6.2,11.24l-3.28-.74L415,214.4Z"/><path class="cls-9" d="M394.18,152.7l-3.58.55-1.58-.8c0-.38-.06-.77-.1-1.15,2.29-3.9,3.81-7.3,8-9.76l-4-3.51C401.76,137.45,401.43,150,394.18,152.7Z"/><path class="cls-10" d="M399.55,141.8c-1.56-3.33-4.59-3.43-7.69-4.19-.09-.85-.19-1.71-.28-2.57l5.25.21C396.28,138,402.82,137.89,399.55,141.8Z"/><path class="cls-8" d="M169.49,257.93c-8.5,4.19-26.16-12.7-32-18.92-18-8.44-54.59,15.1-70-2.16-4.41-9.42-2-19.92-2.29-30,0-12.4,9.5-20.84,20.07-25.3,25.64-.82,51.53-5.65,77.24-7.61,5.73-.33,12.21,5.37,12.71,11.07.44,12.52,3.2,25.41.14,37.73l0-.08c-.86,1-.7,2.39-.87,3.66-4.61,4.87-11.74,3.11-17.21,6.33l-1.59-1.75C156.12,242,163.83,249.15,169.49,257.93Z"/><path class="cls-4" d="M312,83.1c1.05-1.27,7.89-6.77,8.26-13.1.8-13.71,26.25-14.52,18,6.61-.07,2-.11,4-2.76,4.58-2,2.07-.77,5.71-1.33,8.69,3.21,0,7.2,0,10.93,0-11.81,3.06-5.7,7.17-7.23,15.86-3.13,12.54-11.71,22.25-15.19,34.46-3.93,13.13,15.86,6.74,23.06,8.23-3.52,2.95-6.63.13-10.38,4,2,2.34,3.86,4.25,7.19,3.68l-.05.17-21.16,1.35-.95,4.29c-3.55-3.25-8.44-2.37-12.85-3,.75-5.48-8.24-.18-11.77-8.41-2.6-5.56-10.63-2.1-13.46-6.56,4.29-.87,6.12-2,5.25-6.35-1.55-6.53-1.32-13.25-1.05-19.92.23-4.38,4.77-7.79,3.06-12.73,1.13-3.08,5.24-4.86,6.64-7.87,1.26-2.15,5.47-3.24,3.15-7l2-1.67"/><path class="cls-1" d="M320.32,162l.95-4.29,21.16-1.35.05-.17c-3.33.57-5.2-1.34-7.19-3.68,12.11-9.1,49.42-3,56.57-14.86,2,.76,3.08,2.41,5,3.93l-3.94,3c-9.45-.2-8.57.31-15.6,5.52-5.08,1.31-10.25,2.25-15.39,3.32v.72l2.35.57c-6.23,2.82-13.72,1.89-20.44,3.14l.05,1.05h10.43c-8.58,1.41-17.33.72-26,1.38-3.69,20.24-.64,42.38-1.24,63.31,11.49-1,22.76,1.82,34.41-2.85.27,5.12.5,9.51.73,13.89-12.17,1.53-24.31.34-36.5-.32l0-1.16,2.42-1.6c-5.78-1-5.76-1-4.63-5.9.24-3.31-3.14-1.46-3.58.85-1.14-3.57-1.15-3.5-4.4-3.65s-6.45-.35-9.66-.68c-4.13-.43-4.45-.14-4.58,4,2.54,12.7-12.8,5-19.68,5l-.77-17.33h-.08v17.39c-2.49-.07-5.29-.34-7.46-1.6,1.1-4.37.59-9,.87-13.45l-2.68-.64c-.33-3.11-.66-6.21-1-9.32l.05,0c.33-17,.67-33.94.48-50.91l1.31-1.82c3-.62,2.83,1.28,2.83,3.31,0,17.23.1,34.46.1,51.69,0,2.14.14,3.82,3.16,3.14.75-18.13,0-36.39.3-54.57.07-4.31-2.61-7.12-5.75-9.53l.08.06-1.12-.93c0-.22-.09-.33-.31-.33-1.22-1.41-2.92-2.75-3.94-3.79l4.05-5.85c-2.72-20,13.68-34.76,27.44-46.55,2.32,3.77-1.89,4.86-3.15,7-1.4,3-5.52,4.79-6.64,7.87,1.71,4.94-2.83,8.35-3.06,12.73-.27,6.67-.5,13.39,1.05,19.92.88,4.34-1,5.5-5.25,6.35,2.84,4.46,10.86,1,13.46,6.56,3.57,8.27,12.47,2.88,11.77,8.41-7.69.59-13.68-.67-21.22-3.47v17.9l-2.08,1.32c-.4-6.78-.8-13.47-1.2-20.16l-1.5.09c-1.76,19.15-.86,38.34-1.18,57.5l1.8.41c3.15-5.9-.26-12.89,2.22-18.93l.83.18c1.63,5.23,1.33,11,.81,16.34-.48,3.08,1.06,3.68,3.17,4.2,2.78.17,6.47.87,8.37,3,1,3.48,3.13,2.7,5.41,1.71,4.11-.18,8.06.91,12.14.89,5.29.15,5.28.15,5.28-5.13ZM295,221.42c.06-4-6.67-6.52-11.86-4.4ZM305.16,219v.68l1.59-.24,0-.44Z"/><path class="cls-11" d="M274.39,148.52c2.65,2.21,4.47,4.78,4.45,8.47-.29,18.18.45,36.44-.3,54.57-3,.68-3.16-1-3.16-3.14,0-17.23-.09-34.46-.1-51.69,0-2,.13-3.93-2.83-3.31l-.24-.43C275.68,152.84,273.9,150.13,274.39,148.52Z"/><path class="cls-11" d="M175.4,222.78c3.06-12.32.3-25.21-.13-37.73-.51-5.7-7-11.4-12.72-11.07-25.7,2-51.61,6.79-77.24,7.61,14.57-2.05,29.71-3.58,44.39-6.07,12.3-.19,32.85-8.47,42.57.84C180,184.25,180.53,213.7,175.4,222.78Z"/><path class="cls-4" d="M81.62,183c-8.68,6.06-16.54,12.3-16.37,23.94-.19,10.5-1.29,21,2.16,31-9.52-6.2-3.69-27.41-5.18-38C65.43,190.5,72,185,81.62,183Z"/><path class="cls-9" d="M274.39,148.52c-.49,1.61,1.29,4.32-2.18,4.47-2.49-1.26-5.73-2-7.24-4s-1.1-5.2-1.53-7.83l8.41-4.58-4.05,5.85,3.62,3.38c0,.48.67.3.63.74l1.12.93-.08-.06Z"/><path class="cls-11" d="M174.83,223.73c.2-.34.41-.68.61-1C175.24,223.05,175,223.39,174.83,223.73Z"/><path class="cls-8" d="M388.44,303.81c-10.18,5.72-3,18.56-9.2,26.08-11.62,2.65-23.27,5-35.06,6.8-.94-6.23,42.54-1.3,17.08-23.06,9.21-4.84,13.51-18,20.94-25.65,8.12-8.91,19.12-16.54,22.62-28.58H382.26c14.34-3.43,32,1.3,41.26-13.34-2.13,11.17,1.69,27.37-11.1,32.89-12.25,4.92-20,17.81-30.78,25.41.13.25.26.5.38.75Z"/><path class="cls-11" d="M423.52,246.06c-8,12.37-22.64,11.43-35.66,12.14l12-3.79-2.1-.91c3.29-4.13,6.61-6.13,11-8.77l-5.53.65-1.41-1.48c17.36-2.75,15.82-6.13,14.23-21.9.13-.26.26-.53.38-.79l3.28.74c.16,4.45,0,8.92-.07,13.37-.93,1.08-1.87,2.16-2.34,2.69C420.88,240.37,424.6,241.45,423.52,246.06Z"/><path class="cls-12" d="M385.38,301.29c9.1-7.1,16.18-18.24,27-22.34-.17.82-.35,1.64-.52,2.46l-1.22-.86-1.32,2.2.05-.06C401.3,288.08,394.46,296.59,385.38,301.29Z"/><path class="cls-11" d="M385.38,301.29c3.9-2.65,8-5.08,11.66-8,4.16-2.91,6.66-8.16,11.62-9.84-8,7.93-14.52,20.41-26.64,21.68-.12-.25-.25-.5-.38-.75Z"/><path class="cls-11" d="M409.36,282.75l1.32-2.2,1.22.86Z"/><path class="cls-11" d="M408.61,283.49c.27-.27.53-.54.8-.8C409.14,283,408.88,283.22,408.61,283.49Z"/><path class="cls-13" d="M255,616.49c1.15,3.11,5.23,4.5,4.47,8.5,1.84,5.49,5.34,10.72,6.89,16.43a45.49,45.49,0,0,1,7.93.63C269.48,628.17,264,612.72,252.53,603c-5.54-3.25-13-1.75-19.32-3C242.15,602.75,252.83,606,255,616.49Z"/><path class="cls-14" d="M225.18,601.56c22-.53,28.87,22.75,33.81,40.51a48.44,48.44,0,0,1,7.4-.65c-1.55-5.7-5.05-10.94-6.89-16.43.76-4-3.32-5.39-4.47-8.5-3.74-14.4-25.18-20.12-37.69-15.18A56.71,56.71,0,0,1,225.18,601.56Z"/><path class="cls-1" d="M544.45,251.12c5.91-3,10.88-9.88,18-6.47a7.67,7.67,0,0,1-5.84,6C553.67,250.7,544.25,256.74,544.45,251.12Z"/><path class="cls-15" d="M422.81,241.53,417.37,238c.75-.75,2.09-2.92,3.76-3.31C421.69,237,422.25,239.26,422.81,241.53Z"/><path class="cls-15" d="M419.77,234.18l.09-10.77Z"/><path class="cls-8" d="M271.41,301.49c-2.59-7.69-19-33.14-32.2-36l-.57-4.63c13.65,3.92,24.66,12,33.06,23.35,2.76,4.51,14.84,15.31,12,20-7.85.77-2.12,17.78-3.62,23.54-.17,3.09.79,3.82,3.39,3.74,1.28,24.57-.93,49.91.09,74.84,1.76,5,.93,9.87-.21,14.95l-7.52.38-10.15-5.48c3.65-22.72,4-46.34,5.91-69.41-.41-6.82,3.38-14.73-.75-20.69C271.8,321.37,268.4,302.32,271.41,301.49Z"/><path class="cls-1" d="M283.46,331.53c-2.61.08-3.57-.65-3.4-3.74,1.51-5.73-4.24-22.79,3.62-23.54,2.82-4.8-9.21-15.46-12-20a61.68,61.68,0,0,0-33.07-23.35c0-9.1-2.9-19.2,3.35-26.91,3.12-.52,1.39-4.42,2.5-6.56,1.11-3.58-.52-5-3.72-5.54.45-1.36.89-2.73,1.33-4.09l5.31,5.23c.06,4.7-1.59,9.32-2.22,14,9.19,6.24,20.37,7.41,30.81,10.51-11,2.56-13.11,5.08-24.85,1.22l-.38,1,2.38,2.93c-3.08,3.35.4,5.43,1.73,8.4.8,7,9.1,5.48,13.86,8.12,5.64,2.2,8.05,7.7,11.8,11.83,6.47,7.78,13.84,15.15,18.42,24.23-2,.89-2.45,4.06-5.45,3.75C285.55,307.7,290.77,330.23,283.46,331.53Z"/><path class="cls-5" d="M242.8,272.34l1.56,1.39Z"/><path class="cls-9" d="M247.41,223l-5.31-5.23c-.57-3.95,2.19-5.69,5-7.43,5.09-.59,21-9,23.61-4.2-14.58,5.15-16.9-.72-19.28,16.64l20.21-7.27,2.68.64c-5.74,3.72-11.65,4.41-18.56,6.46,5.66,5.5,11.26,2.25,16.89,1.72.31,2,.9,3.85-1.91,4.35l-1.42-.52-.13.48c3.43.42,6.39,2.14,9.85,2.55-2.13,5.53-24.93-7.09-30.08-8.45.75-3.66,1-7.4,1.51-11.11L248.9,211c-4,4.36-4.17,5.51.35,9.53-.41.74-.82,1.48-1.22,2.22A.81.81,0,0,0,247.41,223Z"/><path class="cls-5" d="M161.29,246c-4.32-4.16-4.46-9.38-5.52-15.08,3.68,4.32,3.92,9.88,6.2,14.94A5.12,5.12,0,0,1,161.29,246Z"/><path class="cls-13" d="M264.21,205.12l-17.16,5.23C249.06,207.2,261.27,203.31,264.21,205.12Z"/><path class="cls-3" d="M161.29,246a5.12,5.12,0,0,0,.68-.14c1.19,2.58,9.94,10.39,7.52,12.05Z"/><path class="cls-8" d="M415.82,577.48c-18.43,10.49-39.94,10-60.42,12,3.4-5.24-.28-4.61.25-8.14,3.82-3,1.56-7.13,1.92-10.72,2-12.49-2.75-24.43-2.08-36.9-1-16.92,1-34.44-.57-51.19-2.62-3.37-1.72-7.18-1.68-10.84.46-7.88.79-15.78.72-23.69.21-3.58,1.69-6.92-1.34-9.75l2.41-.47-1.9-1,3.59-.52-.07-.53H339.92c11.47-5.53,25.62-3.63,38.11-6.09-.18,2.38-3.71,2.12-5.42,3.21,6.58.58,13.79,2.43,15.72-6.81l1.69-1.38h0l.77-.14c2.11,48.34,11.92,96.5,27.59,142.42C422.09,571.89,417.94,573.54,415.82,577.48Z"/><path class="cls-16" d="M539.41,547.5c-11.54-6.71-26.28-9.32-38.76-13.21-5.23,3.1-10.06-.06-14.8-.93-29.09-6.69-64.19-15.55-82.44-40.7l-3,.86c1.92,11.93,17.07,16.19,25.15,23.46,14.34,8.18,30.56,11.24,46,16.74,10.57,4.51,40,3.22,44.89,12.12-2,4.45-1.95,4.61,2.23,6.67-6.83,10.27-29.54,10.77-41.15,14.49-16.37,4.68-34.83-2.39-50.21,3.66-4.14-1.95-4,2.34-5.77,3.92-2.06,6.45-7.84,11.88-11.84,17.39-3.5,3.38-9.91,3.58-14.2,5.74a9.26,9.26,0,0,1-8.15,1c-2.41-1-6.16-2.49-7.84.2-2.44,6.52-4.57,13.13-4.08,20.19-.65,6.38-8.73,9.19-6.57,16.68-1.89,3.71-6.31,6.24-9,9.52,26.08,3.37,23.51-36.59,66.74-45.62l1.4-1.64-6.69-3.52,0-1.57c22.34-16.07,44.19-4.88,65.58-13.06a13,13,0,0,1-3.62-3.32c9.53-1.17,18.31-1.31,27.51-3.59,6-.8,7.17-2.09,5.66-8.29l5.25,3c3.38-2.44,7.43-6,9.63-9.58,1.5-2.76,2.51-4.88,6.14-4.82C540.4,552.89,542.67,550.06,539.41,547.5Zm-59.2,29.79c-.23,0-.44-.4-.65-.62l.83-.68c.24.34.42.58.6.82C480.73,577,480.46,577.31,480.21,577.29Z"/><path class="cls-7" d="M553.43,516c12.15,10.52,24.31,21,35.8,32.25,5.51,10.7-47.85-11.24-50.94-13.89,6.16,1.51,36.43,11.13,22.36-3.85-7-9.36-14-18.85-23.61-25.71-14-10.85-31.31-18.06-48.21-21.91-5.95,3-13,3.88-12.79,11.83,4.33.94,4.9,2.34,2.5,6.15l5.5,2.26c-.12.74-.25,1.58-.39,2.42-17.58-7-35-14.45-52.5-21.69l7.49-2.25c.34,1.1.62,2,.9,2.88l1.09.52c-.81-5.33,3.87-5.83,7-8.62-6.8-4.28-13.22-1.22-20,0-1.38.15-3.74-.61-4.15-1.58-3-9,18.82-14.15,25.21-14.07,24-1.68,53.75,2.87,74.68,14.82-3.86-1.74-46.62-15-41.29-3.65,1.78,2.68,4.79,3,7.52,4.15,12.94,5.46,25.5,11.84,38.4,17.41C535.09,501.81,544.86,508.78,553.43,516Z"/><path class="cls-16" d="M507.78,474.73c2.08.31,4.35.42,6.14,1.38,12.34,7.25,26.25,12.51,36.34,22.95,6.2,5.93,12.74,11.6,18.25,18.13,3.61,4.27,6.14,9.08,11.71,11.62,4.79,3.15,8.76,7.83,14,10.53.64-2.57,1.15-4.89,1.68-7.31-13.38-5.13-23.22-17.67-34.35-26.45-.23,0-.45-.05-.67-.09-8.14-7-16-14.89-24.73-21l-.79-.7h0c-5.44-3.39-10.21-8.17-16.62-9.37-2.94-3.21-43.46-12.08-36.73-2.49,1.78,2.68,4.79,3,7.52,4.15,12.94,5.44,25.47,11.85,38.37,17.39-4.17-8.07-20.49-9.93-22.68-18.29A8.55,8.55,0,0,1,507.78,474.73Z"/><path class="cls-16" d="M407.9,423.63c6.27,7.47,16.35,7.71,25.15,9.94,11.52,4.6,23.86,4.34,36,4.58,36,2.6,68.32,21.68,91.09,49.32,10.45,13.76,27.66,21.76,36.49,36.46-5-17-23.62-26.22-34.77-39.16-20-26.65-50.15-46.37-83.31-51.22-13.4-2.27-32.09,2.13-42.74-6.85a5.33,5.33,0,0,0-4.22-.35c-20.13,7.42-31.08-26.34-41.68-37.86C388,403.12,399.8,412.93,407.9,423.63Z"/><path class="cls-7" d="M400.39,493.52c1.92,11.93,17.07,16.19,25.15,23.46,14.34,8.18,30.56,11.24,46,16.74,10.57,4.51,40,3.22,44.89,12.12-2,4.45-1.95,4.61,2.23,6.67-6.83,10.27-29.54,10.77-41.15,14.49-16.37,4.68-34.83-2.39-50.21,3.66-4.14-1.95-4,2.34-5.77,3.92l-.09-.09c1.34-5.81-1.89-10.77-3-16.12,1.23-2.33,2.7-1.87,4-.17,4.55,5.6,12.95.92,18.81,3.21,7.13,2.07,14,.61,21,.09,8-.59,16-.67,23.36-4.91,2.27-2.59,21.27-5.1,14.15-9.5-33.12-12-69.43-15.81-97.82-38.21-1.51-6.82-2.67-13.72-3.89-20.6C398.8,490,399.6,491.77,400.39,493.52Z"/><path class="cls-16" d="M555,546c11.18,1.73,21.64,6.91,32.13,11a42,42,0,0,0,5.4-11.58c-8.2-6-15.94-12.6-25-17.25,7.28,6.63,14.61,13.21,21.66,20.08,5.4,10.69-47.79-11.24-50.94-13.89-45.79-20.71-90.66-54-142.32-56.93l1.17,4.42c.25-1,.51-2,1-4.06l3.23,5.81c.36-1.54.65-2.77,1-4.13,9,1.13,17.62,2.32,26,5.91,6.62,1.84,11.44,7.89,18.79,8,4.38,4.42,10.42,5.65,15.94,7.25,20.53,5.83,39,17.24,57.13,28.07C530.9,535.55,545.24,537.74,555,546Z"/><path class="cls-17" d="M556.13,554.21c1.45,1.31,3,3.43,4.61,3.49,5.66.17,9.22,4.06,13.73,6.45,3.72-.72,7.27-1.91,10.13-4.37-9.61-6.92-21.57-15.88-34-12.73A34,34,0,0,0,556.13,554.21Z"/><path class="cls-16" d="M553.43,516c-8.57-7.16-18.34-14.14-25.48-22.49C537.56,499.26,547.8,506.05,553.43,516Z"/><path class="cls-16" d="M567.55,528.08l-4.49-3.72Z"/><path class="cls-5" d="M153.38,633.07c31.42-9.8,40.17,2.83,66.4,15.07,1.5-2.5.94-4.3-1.54-7,2.49-9.95,4.28-17-8.4-18.37a87,87,0,0,0-27.49-4c-10-2.14-5.72,2.66-12.28-1.13l4.59-2.62c-10.54-1.09-19.18,13.1-27.86,18.14A24.24,24.24,0,0,0,153.38,633.07Z"/><path class="cls-5" d="M26.63,594.1a39.21,39.21,0,0,1,7.7.22c-4.08-3.17-9.94-1.58-14.77-.56A38.79,38.79,0,0,0,26.63,594.1Z"/><path class="cls-5" d="M55,616.68c.5-1.37-1.56-2.77-2.56-3.58C53.29,614.32,54.14,615.52,55,616.68Z"/><path class="cls-8" d="M0,576.63c.39.56.78,1.12,1.16,1.69,32.11-6,45.61-11.18,63.15,21a15.34,15.34,0,0,0,0-3.83c-3.32-3.78-2.65-10.29-6.68-13.72-2.79-.67-5.21-4.41-5.09-7.89-8.46-14-34.52-3.1-36.28-13.14C12.24,562.91,8.12,565,4,567A35.24,35.24,0,0,0,0,576.63Z"/><path class="cls-15" d="M118.91,609.65c-.06,1.15-.12,2.3-.16,3.15,27.68,8.77,14.56,2.71,24,19.54a27.92,27.92,0,0,0,4.07.81c8.68-5,17.31-19.22,27.86-18.14,9.08-5.14,20.7-5.35,29.35-10.4l-.37-.42c-4.28.14-8.72.59-12.19,3.23a246.79,246.79,0,0,0-28.29,7.7c-4.08,1.41-7.65,5-11.92,5.81-3.7-.14-10.43,1.71-11.64-3,.3-4-1.42-7.13-3.27-10.32-10.74-2.78-21.82-3.88-32.66-6.23-4.5,1.93-15.63.36-13.62,7.64C99.72,605.85,109.26,608.21,118.91,609.65Z"/><path class="cls-10" d="M58.41,577.46c-8.16-20.55-21.84-12.85-38.73-16.29-.27-.64-.54-1.28-.8-1.92-.93.32-1.64,1.09-2.58,1.48,6.08,13,26.59-7.15,42,21.44l.12-4.69Z"/><path class="cls-15" d="M64.31,599.31l.18-2.36c4.78,5.21,10.13,26.47,18,13.52l3.75.18C78.1,630.92,67.28,610.39,64.31,599.31Z"/><path class="cls-8" d="M86.23,610.65l-3.75-.18L84,604.58q3.76-2.37,7.55-4.72c4.14.13,8.38-.59,12.17,1.48-4.49,1.93-15.63.37-13.62,7.64Z"/><path class="cls-13" d="M26,555.25c-2.42,1.36-4.7,2.9-7.16,4,.26.64.53,1.28.8,1.92q5.7-4.29,11.41-8.57C29.4,553.44,27.72,554.31,26,555.25Z"/><path class="cls-3" d="M174.11,619.26c2.76-2.23,5.52-.47,8.24-.5a87,87,0,0,1,27.49,4c12.67,1.37,10.89,8.43,8.4,18.37,2.48,2.67,3,4.47,1.54,7,9,3.5,18.56.5,27.19-2.85-3.68-9.27-3.41-20.74-9.35-28.7a8.35,8.35,0,0,1-1.68-3.35c-.34-3.28-5.71-8.7-9.25-8.69a141.93,141.93,0,0,1-22.68.06c-10.42,5.68-23.66,5.73-33.94,13C171.66,618.31,173.61,619.67,174.11,619.26Z"/><path class="cls-15" d="M215.53,605.13c8.32-.68,17.58-2.07,20.41,8.11,6.45,9.42,7.53,21.16,11,32a65.09,65.09,0,0,1,12-3.22c-3.37-13.27-8.78-27.43-18.44-37.19-11.57-3.28-26-5.87-36.91-.69l.37.42C207.85,604.79,211.69,605.14,215.53,605.13Z"/><path class="cls-18" d="M338.13,66.66l1.61.15a7.44,7.44,0,0,1-.83,3.31h0l-4.55.83-.75-2.73Z"/><path class="cls-19" d="M338.91,70.12c.19-.43.39-.86.59-1.28C339.3,69.26,339.1,69.69,338.91,70.12Z"/><path class="cls-20" d="M331.91,69.13c-1.92,5.21-7.49.05-11-.22L320.22,70c-.3-1.25-.59-2.5-.89-3.75A101.85,101.85,0,0,1,331.91,69.13Z"/><path class="cls-10" d="M334.19,39.8l1-.25c0,.3-.05.61-.07.92Z"/><path class="cls-4" d="M265.66,416.22c5.72,3.19,11.43,6.3,17.7,8.29-.5,3.78,3.49,2.57,5.95,3.52a74.14,74.14,0,0,0,17,2.82c8.62,3.37,17.53,2.5,26.59,2.85-2.39,1.46-4.74,3-7.26,4.25,3.53,2.62,8.43,1.16,12.3,1.48.17,2.1.31,3.81.38,4.63-6.17,8-3,18.32-4.06,27.64-.49,7.42-1.83,14.8-2,22.22-.46,19.94.35,40-.55,59.86.64,11.76,3.75,24.42-.36,35.7-11.27,0-22.55.31-33.81-.07-.53-.46-1.1-1.36-1.59-1.31-5,.46-9.6-2.71-14.68-1.78-.48.09-1.09-.56-2-1.08,1.95-.13,2.54-1,4-1.83-2.74-2.45-6.08-.74-9.34-.54.91-5.4,6-3.16,10.07-4.73a10.54,10.54,0,0,0-2.5-.6c-6.55,1.13-3.2-6.42-4.64-10.1-1.79-4.82-1-16.44-6.24-18.17-8.09-1.81-23.3-.34-29.37-4.84,2.31-5.06,2-10.68,3.43-15.69.6,2.45,1.21,4.9,1.73,7,3.66-2.12,5.27-6,6.52-10.23.31,1.18.61,2.37,1,3.89,1.06-2.11,1.93-3.87,2.81-5.63,1.84,1.71,1.23,4.4,2.88,5.52,3.85,1.65,4.9-4.5,8.07-5.86,8.91-3.31,23.21-84.67,15.83-91l5.65-.77V430.5l-12.88-3.06c-2.61-2.53-6.31-4-9.34-6.06Q266.31,418.8,265.66,416.22Z"/><path class="cls-1" d="M331.36,589.48c4.11-11.28,1-23.94.37-35.7.89-19.9.08-39.92.54-59.86.14-7.42,1.48-14.8,2-22.22,1-9.32-2.12-19.58,4.06-27.64-.07-.82-.21-2.53-.38-4.63-3.87-.32-8.77,1.14-12.3-1.48,2.52-1.26,4.87-2.79,7.26-4.26,3.49.05,7-.36,10.49,0l-3.45,2h16.73l.07.53-3.59.52,1.9,1-2.41.47c3,2.86,1.55,6.14,1.34,9.75.07,7.91-.26,15.8-.72,23.69,0,3.66-.94,7.47,1.68,10.84,1.53,16.75-.39,34.27.57,51.19-.67,12.47,4.05,24.4,2.08,36.9-.36,3.59,1.9,7.7-1.92,10.72-.57,3.44,3.16,2.93-.25,8.14C347.42,589.9,339.35,589.82,331.36,589.48Z"/><path class="cls-18" d="M241.26,544.43c5.58,4.4,21.6,3.1,29.37,4.84,5.21,1.71,4.45,13.36,6.24,18.17,1.45,3.68-1.91,11.23,4.64,10.1a10.54,10.54,0,0,1,2.5.6c-4.09,1.57-9.16-.67-10.07,4.73,3.26-.2,6.6-1.91,9.34.54-1.48.87-2.07,1.69-4,1.83.93.52,1.54,1.17,2,1.08,5.08-.93,9.65,2.24,14.68,1.78.49-.05,1.06.85,1.59,1.31l-27.66-4.34c-2.1-2.19-5-3.27-7.58-4.75l.43-.94,4.16-.93c-6.37-4.18-7.42-12.87-12.08-18.72-1.67-2.65-2.25-8.15-7.92-5.19a1.12,1.12,0,0,1-1-.35c-1.58-2.42-3.56-.79-5.4-.57l-6.5-1c0-.48,0-1,0-1.43A15.73,15.73,0,0,0,241.26,544.43Z"/><path class="cls-20" d="M204.56,588.56a1.22,1.22,0,0,0-.64.21c-14.71-9-33.83-15.88-40.87-32.81,4.27,2.21,8.29,5.09,12.72,6.92.36.64.56,1.59,1.1,1.86,9.23,4.39,18.36,9.54,28.11,12.58,6.82,1.39,14.82,2.07,21.13,4.31,5.65-1.91,10,1.83,15,2.59l5.13,5.09c.08,1.22.18,2.77.29,4.49-3.18-.18-6.33,1.69-9.93.29-2.08-.81-5,.33-6.93-.65-7.69-4-16-4-24.24-4.76h0Z"/><path class="cls-16" d="M217.34,601.31c-4.36,1.2-10.28-.06-13.7,2.88-3.53.16-7,.42-10.29,1.94l-6.28-.75c3.6-2.66,6.31-6.33,9.59-9.27,3.87-3,3.92-4.18-.32-6.78,2.34-2.81,5.1,4.59,13.66,4.63,4.21,1,9.29.45,13.11,2.27,1.13,2.82,3.65,3,6.08,3.29C225.19,599.93,220.89,599,217.34,601.31Z"/><path class="cls-2" d="M203,592.47c-2.19-1.06-4.29-5.48-6.66-3.14l-1.29-.74c-.84-3-8.27-5.49-12-4.52-7.56-10.23-22.85-14.18-24-28.48,8.59,4.38,12.07,14.94,21,19.38,7.76,4.92,15.92,9.22,23.9,13.8C203.61,590,203.3,591.23,203,592.47Z"/><path class="cls-19" d="M205.45,588.68c8.22.8,16.55.79,24.24,4.76,1.91,1,4.85-.16,6.93.65,3.6,1.4,6.75-.47,9.93-.29-.11-1.72-.21-3.27-.29-4.49l-5.12-5.09c.22-.28.44-.57.67-.85,7,.89,11.48,7.43,18.49,8.86l-.1,1.17C242.18,601.26,222.47,597.43,205.45,588.68Z"/><path class="cls-20" d="M240.48,553.62c1.84-.22,3.82-1.85,5.4.57a1.12,1.12,0,0,0,1,.35c5.67-3,6.25,2.54,7.92,5.19,4.67,5.86,5.7,14.53,12.08,18.72l-4.16.93-.43.94c2.6,1.49,5.48,2.56,7.58,4.75C241.94,578.78,266.49,571.56,240.48,553.62Z"/><path class="cls-19" d="M240.48,553.62l3.15,2.88c-5.58-.59-6.94,6.85-10.94,9.75l-1.81-.73c.08-1.89-.47-3.18-2.71-2.91-3.69.17-7.75-.13-8.83-4.23C219.07,551.78,235.32,552.65,240.48,553.62Z"/><path class="cls-15" d="M245.68,584.08c-22.54-5.9-46.37-7.5-66.6-19.93,4.94.27,9.35,2.83,14,4.36,13.14,7.4,29.46,9.87,44.86,10.36l-2.62-2.8c.53-1.52,1.05-3.05,1.57-4.57,4.08,3.11,8.33,6,10.52,10.8Z"/><path class="cls-16" d="M239.89,567c.32-3.13,4.7-7.63,7.47-5.12,3.26,4.27,11.85,21.88.73,20.35.38-2.36,1.34-4.8,1-7.07C248,567.09,247.84,567.11,239.89,567Z"/><path class="cls-2" d="M239.89,567c8,.15,8.11.13,9.23,8.16.1,1.39-.28,7-1.72,7.17-2.61-5.21-7.35-9-12.41-11.67l-.69-1.35C236.54,569.4,238.73,569.43,239.89,567Z"/><path class="cls-14" d="M418.39,558.37c1.14,5.35,4.37,10.31,3,16.12l-5.61,3c8.36-10.55,1.15-5.9-.33-21.74Z"/><path class="cls-6" d="M334.42,589.7h18.12c-.77.42-1.55,1.21-2.33,1.21-14.2-.58-29.08,1.42-42.95-.74C316.32,590.3,325.37,590.32,334.42,589.7Z"/><path class="cls-13" d="M230.88,565.52l1.81.73c.22.67.43,1.35.65,2a3,3,0,0,1-.27.35c-6.15.11-11.18-3-16.38-5.68a2,2,0,0,1,.09-.48C221.52,563.29,226.18,564.49,230.88,565.52Z"/><path class="cls-18" d="M334.42,589.7c-10,.36-20.15,1.31-30-.1C314.39,589.7,324.42,589.19,334.42,589.7Z"/><path class="cls-15" d="M234.3,569.27l.69,1.35c-2.25,1-4.21,3.76-7.09,1.23,1.76-1.24,3.89-2.12,5.44-3.57Z"/><path class="cls-19" d="M204.56,588.56l.89.11Z"/><path class="cls-9" d="M574.43,234.87c-6.15-5.75,1.15-21.5,8.56-12.72C589.68,228.14,582.57,241.49,574.43,234.87Z"/><path class="cls-9" d="M563.39,220.12c-2,14.48-15.83,5.64-13.51-4.41.62-5.5,5.91-6.28,9.4-3.14C561.21,214.53,562.07,217.55,563.39,220.12Z"/><path class="cls-1" d="M574.43,234.87c2.47,2.71,5.19,1.85,7.88.5,3.83-2.05,3.41-6.64,2.9-10.24C593,235.46,580.54,245,574.43,234.87Z"/><path class="cls-1" d="M333.79,148.34c-5.94.7-14.46,0-11.17-8.13,2-5.64,3.18-11.77,7.92-16.09,4.64-9.66,8.67-19.63,7.17-30.44,5.43-4.82,12.14-4.55,21.85-5.15,5.28.72,20.57,19.22,20.19,24.86-.39.26-.79.51-1.19.76-10.86-8.64-10.58-2.75-21.27,1.41-6.94,1.54-1.86,9-9.31,9C335.4,124.05,336.19,139.5,333.79,148.34Z"/><path class="cls-9" d="M387.67,153.73c0,19.77.13,39.54.23,59.3.18,4.52,0,10,.31,14.87-2.38-3.51-.65-7.77-1.44-11.61-7.22-19.64.23-41.28-2.83-61.71C385.17,154.23,386.42,154,387.67,153.73Z"/><path class="cls-9" d="M392.88,216.86l19,7.26c.69,1.08,2.07,2.25-.32,3-5.75-5.09-14.53-5.72-21.49-8.92l-.78-2Z"/><path class="cls-4" d="M389.31,216.19c1.72,4.61.81,9.85,1.38,14.72l-2.17.7c-.3-5.92-1.09-11.44-.26-17.25Z"/><path class="cls-5" d="M387.67,153.73l-2.45.52,3.7-2.95a3.31,3.31,0,0,1-.42,2.36Z"/><path class="cls-5" d="M387.93,211.38l0-5.8Z"/><path class="cls-8" d="M388.5,153.66l.52-1.21,1.58.8Z"/><path class="cls-5" d="M387.88,203.89l-.09-1.45Z"/><path class="cls-5" d="M387.88,213.68c-.08-.25-.3-.49,0-.65A.41.41,0,0,1,387.88,213.68Z"/><path class="cls-8" d="M388.92,151.3c-11.14,8-7.47-1.4-7.89,18.23.73,14.5-1.68,30.46.86,44.48,3.48,5.26,1.4,11.32,2.31,17.15L383,232.78l-20.73,1.81c-.23-4.38-.46-8.77-.73-13.89-11.65,4.67-22.92,1.83-34.41,2.85-.09-1.76-.16-3.07-.22-4.39,9.83,1.52,19.83-.12,29.75,0,3.56-.05,4.72-1.59,4.69-5.06-.13-14.58-.05-29.17-.06-43.76-1-4.64,2.92-11.27-4.63-10.15-8.47,0-16.94-.05-25.4-.07,7.7-.6,15.44,0,23.08-1.29H343.93l-.05-1.05L362,155.86c2.73,20.22-.26,40.9,1.29,61.22l1.38-.1V198.51l.75,0,1.23,3.24c1.71-14.58.17-29.8.83-44.62,0-3.57-3.39-2-5.51-3.07v-.72c5.14-1.07,10.31-2,15.39-3.32,7.11-5.26,6.06-5.7,15.6-5.52C391.61,146.79,390.27,149.05,388.92,151.3Zm-20.77,35.44h-.1c.78,9.06-1.67,19.48,1.15,28,2.11,1.45,8.89-2.36,8.89-5q.07-24.88-.1-49.77a3,3,0,0,0-.89-2.23C363,151.69,369.53,179.35,368.15,186.74Zm6,42.9c7.38-2.15,3.54-7.87,5.67-13.68-3.71-1.74-7.38,1.28-12.28,2.38C372.1,221.18,372.7,224.86,374.12,229.64Z"/><path class="cls-12" d="M301.55,159c6.21.3,13.56-1,18.77,3v52.8c0,5.28,0,5.28-5.28,5.13-4.08,0-8-1.07-12.14-.9C299.4,199.38,302.27,178.89,301.55,159Z"/><path class="cls-4" d="M247.41,223c7.42.79,14.85,6.12,22.39,8.11-.55,4-2.45,8-1.5,12.09l7.49,1.3c3.25-4.56,1.2-8.19-1.26-12,1.83,0,3.92,1.22,4.46-1.33h1.6c3.41,4.59,9.8,3.61,14.91,4.11,9.37,0,18.7,3,28,.43-8.08-.42-16.19-.61-24.22-1.67,0-.22-.09-.45-.14-.67,5.76-2.66-1.88-13.24,6.85-11.26,3.21.33,6.44.54,9.66.68s3.26.08,4.4,3.65c.44-2.31,3.82-4.16,3.58-.85-1.13,4.94-1.15,4.93,4.63,5.9l-2.42,1.6,0,1.16,23.62,1.29-11.2,1,.1,1.15h25.27c-9.71,3.44-10.74-.84-13.55,11.18-23-.15-46,.74-68.89-2.14l-.09,1.3c12.77,1,25.68,1.27,38.17,3.53l-2.25,3c11.92,5.65,26,2.71,38.84,4.5-1.28.4-4.52.49-5.08,1.33-.08,3.33,2.41,6.18,3.38,9.22,2.92,9.46-1.16,18.57-9.83,23.52-4.54,2.59-5.26,8-7.28,12.34,6.52,14.28-4.39,16.37,3.33,21l-4.48,1c5.12,10.52-6,.77-4.29,9.87-15.95.15-32.53,0-47.86-4.66-.08-.4-.16-.81-.25-1.21,7.32-1.3,2.1-23.82,10.06-22.52,3,.31,3.4-2.86,5.45-3.75-4.58-9.08-11.95-16.45-18.42-24.23-3.75-4.13-6.16-9.63-11.8-11.83-4.77-2.64-13.06-1.11-13.86-8.12-1.32-3-4.82-5.06-1.73-8.4l-2.38-2.93.38-1c11.51,3.86,15.15,1.25,26.11-1.71-5.42-3.23-12.5-3.43-18.53-5.47l6-.66c.66-3.15,1.32-6.3,2-9.48L247.54,225C247.44,224.32,247.46,223.66,247.41,223Z"/><path class="cls-12" d="M331.28,160.15c8.46,0,16.93.06,25.4.07,7.58-1,3.59,5.37,4.63,10.15,0,14.59-.07,29.18.06,43.76,0,3.47-1.13,5-4.69,5.06-9.92-.15-19.92,1.49-29.75,0,1.15-19.4-2.37-40.2,1.46-58.92l.34.07.29-.18Z"/><path class="cls-12" d="M286.25,173.35v-17.9l10.63,3.36c-1.65,18.4-.73,37,.13,55.47-4.11-.13-11.58,2.12-11.06-4.18C286.74,197.94,286,185.56,286.25,173.35Z"/><path class="cls-8" d="M292.42,214.55l4.59-.27c-.86-18.51-1.78-37.08-.13-55.47l4.67.16c.6,20.06-3.22,40.32,1.35,60C296.46,221.87,300.07,216.52,292.42,214.55Z"/><path class="cls-15" d="M364.32,154.67c1.71,0,3.18,0,3.16,2.5-.66,14.82.88,30-.83,44.62l-1.23-3.24-.75,0V217l-1.38.1c-1.55-20.32,1.44-41-1.29-61.22Z"/><path class="cls-8" d="M286.25,173.35l0,24.58-1.08-4.17-.83-.18c-2.48,6,.93,13-2.22,18.93l-1.8-.41c.32-19.16-.58-38.35,1.18-57.5l1.5-.09c.4,6.69.8,13.38,1.2,20.16Z"/><path class="cls-3" d="M273.4,229.61l-2.84-.75.13-.17c2.81-.5,2.22-2.33,1.91-4.35-5.63.53-11.23,3.78-16.89-1.72,6.91-2.05,12.82-2.74,18.56-6.46C274,220.65,274.5,225.24,273.4,229.61Z"/><path class="cls-3" d="M363.58,237.74H338.31l-.1-1.15c14.92-1.42,29.88-2.42,44.81-3.83-.12,2.31,3.24.93,4.79,1.39a5.1,5.1,0,0,0-.24.69Z"/><path class="cls-3" d="M293.14,235.32c-4.45-.88-9.65.14-12.55-4.13h.26c8.86.61,17.53,3,26.4,3.73L306,236C301.7,235.78,297.43,235.26,293.14,235.32Z"/><path class="cls-4" d="M295,221.42,283.12,217C288.31,214.9,295,217.37,295,221.42Z"/><path class="cls-8" d="M281.71,231.14l-.86.06q0-8.69,0-17.38h.08Z"/><path class="cls-8" d="M308.16,219.15l3.52.66Z"/><path class="cls-8" d="M299.26,234.06l-1.85-.56,1.71-.11C299.17,233.61,299.22,233.84,299.26,234.06Z"/><path class="cls-8" d="M305.16,219h1.56l0,.44-1.59.24Z"/><path class="cls-8" d="M304.92,159l-2-.07Z"/><path class="cls-11" d="M274.37,148.51l-1.28-1Z"/><path class="cls-11" d="M273.17,147.52l-1.12-.93Z"/><path class="cls-11" d="M271.74,146.26a.51.51,0,0,1-.32-.41C271.53,146,271.63,146.13,271.74,146.26Z"/><path class="cls-3" d="M274.4,230.22l-.79-.45Z"/><path class="cls-8" d="M329,160.13l-.29.18-.34-.07Z"/><path class="cls-9" d="M379.24,329.89c.86-7.45,2.95,3.24,4,5.43s2.93,4.05,5.1,4.19c14.26,2,22.33,15.87,29.95,26.58-3.68-1.93-7.22-4.1-10.73-6.32l-.87.43c2.78,4.05-.7,3.78-2.86,6-9.05,7.59-11.47.4-16.61-6.74v13.19h.36L388,371c1,17.58,2,35.14,2.56,52.72-.2.31-.39.63-.58.94h0c-1.2-.38-3.13-1.42-3.48-1-7.17,6-21.68,6-30.85,6.83l-5.29-3.85c6.91-1.1,4-7.53,7.22-10.3.84-26.37-4.88-52.69-.86-79l4.85-1.45L360.44,334Z"/><path class="cls-1" d="M331.56,337.4c-1.67-9.1,9.42.65,4.29-9.87l4.48-1c-4.23-2.16-2.88-4.95-1.8-8,2.42-5.67-.61-8.16-1.53-13,2-4.36,2.74-9.75,7.28-12.34,8.67-4.95,12.75-14.06,9.83-23.52-1-3-3.46-5.89-3.38-9.22.56-.82,3.79-.92,5.08-1.33-12.83-1.79-26.92,1.15-38.84-4.5l2.25-3c-7.11-2.76-15.35,0-22.41-2.7,0-.17-.08-.34-.12-.5,20.47-.22,41.58,2,61.75.56l-.06,0,12.88,1.84c.1,1.79.16,2.83.22,3.89l-4.75.72,3.91,3-8.38,1.11.12,1.16c14-1.67,28.53-1.3,42.44-1.3-3.5,12-14.5,19.68-22.62,28.58-7.45,7.66-11.69,20.77-20.94,25.65,25.45,21.77-18,16.81-17.08,23.06-3.64.9-7.4,1.05-11.12,1.48Z"/><path class="cls-17" d="M341.06,337.34c6.42-1.35,12.93-2.22,19.38-3.35l1.17,1.86-4.85,1.45c-4,26.29,1.7,52.61.86,79-3.18,2.77-.31,9.2-7.22,10.3l5.28,3.85a.5.5,0,0,0-.35.28c-3.66,1.28-7.47,1.26-11.31,1.37-3.22-1.9-6.36-1.91-6-6.68,0-4.65-.48-9.31-.61-14C338.13,396,332.88,347.25,341.06,337.34Z"/><path class="cls-3" d="M379.31,259.48l-2-.07c2.15-1.82,6.25-2.12,8.25-2.64-1.64-3.67-1.73-6.27-1.47-10l-.69-1c.12-3.28.23-6.57.35-9.85l3.24-.53c.69,3.74-.61,8.27,2.17,11.24l12.76-2.79,1.41,1.48a15.52,15.52,0,0,0-4.29,2.23l2.87,1.47-4.09,4.42,2.1.91C393.46,256.23,386.31,259.44,379.31,259.48Z"/><path class="cls-1" d="M401.89,243.9l-12.76,2.79q.44-6.36.85-12.73c7.17-2.38,14.25-5.05,21.59-6.84,2.4-.75,1-1.92.33-3l4.22-2.12C417.72,237.8,419.23,241.15,401.89,243.9Zm-5.81-10.07.05,1.37c6,.41,11.83-1.31,17.59-2.66.68-.19.85-2.28,1.25-3.48C411.58,227.17,401.75,233.56,396.08,233.83Z"/><path class="cls-5" d="M401.88,249.08,399,247.61c2.89-2.36,6.15-2.52,9.82-2.88Z"/><path class="cls-9" d="M265.66,416.22c2.67,13.35-2.58,27.5-3.09,41.14-.2-9.85.83-20.8,1.67-30.18l-4.64-2.47,4-2.92-4.64-.86c10-4.74-5.35-4.77-8.47-5.4-15,.91-31.22,1.18-43.52,11-9.31,2.56-11.74,12.76-20.12,16.12-8.7-3.64,10.19-17.33,13.42-20.87,19.18-14,44.53-20.69,66.62-9.28C266.49,413.72,266.07,415,265.66,416.22Z"/><path class="cls-13" d="M283.7,332.74l4.36,1.61c-3.51,29-.84,58-1.58,87.06h0l-3.15-.09C284.41,392.29,283.12,361.79,283.7,332.74Z"/><path class="cls-1" d="M283.33,421.32l3.15.09c0,1,0,2,0,3-3.8.52-7.13-1.63-10.65-2.75Z"/><path class="cls-8" d="M264.75,240.88c-6.86,1.72-13-2.27-19.56-3.89.78-3.66,1.57-9.38,2.35-12C245.35,232.15,261.67,232.66,264.75,240.88Z"/><path class="cls-5" d="M245.19,237c10.4,4.1,22,5.71,32.07,10l-1.26.49C265.56,244.4,254.38,243.23,245.19,237Z"/><path class="cls-8" d="M268.3,243.21l-.42-2.68a68.82,68.82,0,0,0,5.83-8.34l.82.34c.2.46.4.91.59,1.37C272,235.8,278.44,239.39,268.3,243.21Z"/><path class="cls-3" d="M273.71,232.19a68.82,68.82,0,0,1-5.83,8.34l1.92-9.41Z"/><path class="cls-1" d="M249.25,220.52c.15.53-.29,1.54-.34,2.23H248C248.43,222,248.84,221.26,249.25,220.52Z"/><path class="cls-3" d="M270.56,228.86l-1.42-.21.13-.48,1.42.52Z"/><path class="cls-19" d="M431.15,483.81c-11.27-4.06-23.16-6.93-35.18-6.43-.52-2.57-1-5.14-1.55-7.71,3.07-12.27-6.61-34.34,3.63-43.46.23,3.72,3.28,3.24,5.67,4.3,13.93,8,30,17.46,46.48,15.36,30-2.67,60.2,5.15,84.42,23.11,7.6,4.86,15.48,9.33,21.5,16.31,6.26,3.78,12.68,9.94,16.15,16.42,5,5.08,20.08,17.51,19.31,24.25-10.09-1.22-13.74-11.92-23.2-14.45a51.89,51.89,0,0,0-6.8-5.93c-.23,0-.45-.05-.67-.09-2.84-6-8.49-8.51-13.62-11.91-1.89-5-6.47-6.31-10.44-9l-.67-.09-.79-.7h0c-2.94-4.31-6.51-7.68-12-8.19l0,0c-20.92-11.94-50.67-16.5-74.68-14.82-6.46-.06-28.16,5-25.21,14.07.41,1,2.77,1.73,4.15,1.57,6.83-1.25,13.23-4.31,20,0-3.12,2.79-7.8,3.29-7,8.62l-1.09-.52c-.28-.89-.56-1.78-.9-2.88Z"/><path class="cls-19" d="M418.39,558.37c-9.67-13.76-12.49-33-16.49-49.49,21.37,16.36,46.69,23.55,72.34,30.36,3.21,1.55,34.59,6.91,25.25,11.85-25.67,12.37-42.8,11.79-70.25,9.92C423.58,562.49,421.06,553.4,418.39,558.37Z"/><path class="cls-14" d="M341.06,337.34c-8.18,9.83-2.93,58.72-3.66,74.09,1.49,5.77-2.59,18.3,5.06,19.66,1.1.38,2.05,1.49,3.05,2.14-3.88,1.2-7.47-1.78-11.15-2.77-3-4.12-3-8.56-2.21-13.37-.25-7.78-.61-15.55-.72-23.32.26-18.54-1.24-37.22,1.63-55.6Z"/><path class="cls-11" d="M345.51,433.23l-1.5-1.15c9.14-.73,18.56-1.79,27.57-3.35,4.95-1.6,10.9-.66,15-5.13.35-.39,2.28.65,3.48,1C376.94,432.58,360.24,430.61,345.51,433.23Z"/><path class="cls-18" d="M395.06,429.89c-4.35,13.16,1.51,26.6-.64,39.78A516.3,516.3,0,0,1,391,415l-.62.25Q392.74,422.55,395.06,429.89Z"/><path class="cls-3" d="M378,429.61l10.3-3.6c-1.93,9.24-9.14,7.39-15.72,6.81C374.32,431.73,377.85,432,378,429.61Z"/><path class="cls-19" d="M400.37,501.58q.76,3.63,1.52,7.26Q401.14,505.21,400.37,501.58Z"/><path class="cls-11" d="M390.59,423.7c.06.27.12.53.19.8l-.77.14C390.2,424.33,390.39,424,390.59,423.7Z"/><path class="cls-2" d="M480.39,576l.6.82c-.6.6-1,.59-1.43-.14Z"/><path class="cls-19" d="M533.11,532.57c-16.5-9-32.83-18.32-49.46-27.07.14-.84.27-1.68.39-2.42l-5.5-2.26c2.4-3.81,1.83-5.21-2.5-6.15-.2-8,6.83-8.88,12.79-11.83,21.9,5,44.16,15.53,59.77,32.32C572.08,543.05,570,541.74,536.12,534,536,531.63,534.49,532.28,533.11,532.57Z"/><path class="cls-2" d="M398.34,400.38c6.11,11.18,17.85,32,33.27,26a5.33,5.33,0,0,1,4.22.35c12.58,10.41,38.32,3.2,54.06,8.68C547.4,455,544,470.91,585.36,506.64c-5.43-6.26-8.83-13.87-13-21-4.9-8.84-12.92-14.89-19.4-22.36-7.89-16.86-22.09-29.64-37.3-39.45-17.33-23.84-64.43-5.67-87.86-1.73,1.1-2.27.22-5.82,4.12-5.18.37-.95.74-1.9,1.1-2.85l-5-.09c-.34-2.1-.34-2.1,7.45-3.75-2.15-1.54-3.58-3-5.33-3.71-8.43-3.79,5.42-9.25-3.07-12.77-3.22-2-5.91-4-5.79-8.33-.94-2.45-3.65-3.82-6-1-3.69,3.46-8.58,10.14-13.31,4.65-3.67-1.7-9.46-15.4-12.9-9.19l.21,7.67C392.25,391.88,396,395.78,398.34,400.38Z"/><path class="cls-7" d="M389.12,379.86c.55,24.84,3.68,25.09,18.78,43.77,6.26,7.47,16.35,7.71,25.15,9.94,11.52,4.6,23.86,4.35,36,4.58,36,2.6,68.32,21.68,91.09,49.31-33.78-26.88-64.65-45.8-110-41.59-16.52,2.1-32.54-7.39-46.48-15.35-2.39-1.07-5.44-.59-5.67-4.31-2.1.35-2.58,1.82-3,3.67q-2.32-7.33-4.66-14.67L391,415c-.15.81-.29,1.63-.44,2.45C389.92,405.44,388.22,390.43,389.12,379.86Z"/><path class="cls-7" d="M589,525.34c-8.6-2.5-11.86-11.59-20.61-13.83,8.28,7.56,17.16,16.53,27.54,20.52.87-3.69,1.73-8.54-1-11.67a213.61,213.61,0,0,0-23.44-20.93c1.35,4.83,7.06,7,9.94,11,2.93,4.39,11.08,10.27,10.17,15.57C590.72,525.76,589.83,525.62,589,525.34Z"/><path class="cls-7" d="M523.35,475.57c5.52.51,9.09,3.88,12,8.19Z"/><path class="cls-7" d="M549.51,495.19a22.8,22.8,0,0,1,11.4,10.3Z"/><path class="cls-7" d="M538.5,485.91a13.79,13.79,0,0,1,8.79,7.67Z"/><path class="cls-7" d="M561.58,505.58l3.77,2.95Z"/><path class="cls-7" d="M547.32,493.61l1.53,1.42Z"/><path class="cls-7" d="M565.37,508.54l1.5,1.47Z"/><path class="cls-7" d="M536.85,484.55l1.63,1.35Z"/><path class="cls-7" d="M566.88,510l1.5,1.49Z"/><path class="cls-7" d="M535.39,483.76l.79.7Z"/><path class="cls-2" d="M562.44,547.53l-6.22-1.5Z"/><path class="cls-7" d="M533.11,532.57c1.38-.29,2.92-.94,3,1.45Z"/><path class="cls-7" d="M536.14,534l.84.14Z"/><path class="cls-17" d="M563.72,474.15a1.22,1.22,0,0,0,.25.2c-5-7.42-9.5-14.81-16.28-20.86C550.85,462.06,557,468.28,563.72,474.15Z"/><path class="cls-17" d="M432.74,420.49c-1.61,0-2.94-6.44-4.75-6.47-.34-2.1-.34-2.1,7.45-3.75-2.15-1.54-3.58-3-5.33-3.71-8.43-3.79,5.42-9.25-3.07-12.77-3.22-2-5.91-4-5.79-8.33-.94-2.45-3.65-3.82-6-1-3.69,3.46-8.58,10.14-13.31,4.65-3.65-1.69-9.43-15.32-12.87-9.24l-.29-.2A69.3,69.3,0,0,1,388,371l-.47,1.67h-.36V359.46c5.14,7.14,7.56,14.33,16.61,6.74,2.15-2.22,5.64-2,2.86-6l.87-.43c19.33,10.12,30.62,30.36,44.37,46.55-.77.75,10.64,7.93,9.83,8.64C458.2,418,436.3,417.42,432.74,420.49Z"/><path class="cls-19" d="M91.32,561.05c-6.85-2.13-11.15-8.56-17-11.78-9.79-4-20.76-1.74-30.92-.35-9.48-.58-16.44,7.25-23.71,12.25l2.58.89c4.64-1.62,9.57-1.85,14.39-2.64,2.92-4.39,7.85-9.29,13.26-6,11.91-3.23,40.57,26,46.06,12.05Z"/><path class="cls-3" d="M146.34,489.12c7.16-6.66,11.77-15.86,17.17-24h.15c8.74-9.17,17.17-19,28.18-25.13-1.34,5.88-7.26,8.69-10.48,13.47-.83-.32-3.14-.71-3.64-.19a236.5,236.5,0,0,0-19.09,25.78c-6.23,4.87-10.48,14.72-19,17.65-.4-.67-.62.11-.62-.73C140.59,494.63,144.76,490.5,146.34,489.12Z"/><path class="cls-5" d="M41.39,547.78l-2.82,1.27,2.54-.08c3.79-4.26,10.41-2.55,15.12-5A42.45,42.45,0,0,0,41.39,547.78Z"/><path class="cls-6" d="M58.32,582.17l.12-4.69c7,5.3,11.62,13.09,17.2,19.76,3.07,7.25,14.82-5.57,21-4.15,9.09.65,20.79.21,28.62,5.3-13,1.08-25.31-7.41-38-.2-3.67,1.18-4.1,3.88-6.23,6.42-4.3,2-5.09,1.62-7.82-2.3-2.25-2.45-5.2-4.28-6.53-7.56.65-3.49-3.33-9.31-6.69-9.79Z"/><path class="cls-14" d="M66.62,594.75c4,5.08,4.94,14.48,13.07,13.93.38,0,.81-2.8,1.34-4.13a13,13,0,0,1,2.92,0c-.67,6.89-6.84,15.56-11.48,5.74-2.34-5.07-6.76-9.49-8.12-14.84-2-1.72-2-4.48-2.87-6.83C63.2,590.68,64.91,592.72,66.62,594.75Z"/><path class="cls-10" d="M66.62,594.75c-2.54-3.09-5.52-5.85-6.69-9.79C63.29,585.44,67.27,591.26,66.62,594.75Z"/><path class="cls-14" d="M52.58,573.87q2.55,3.95,5.09,7.89C54.88,581.09,52.46,577.35,52.58,573.87Z"/><path class="cls-15" d="M63,594c.45.51.89,1,1.34,1.52C63.9,595,63.46,594.47,63,594Z"/><path class="cls-14" d="M187.07,605.38l6.28.75c-9.32,4.32-20.53,4.87-30.19,9-4.08,1.41-7.65,5-11.92,5.81-16.5,1.57-8.39-3.55-14.91-13.36l.06-1.54c2.55,1.43,5.65,2.11,7.5,4.49,2.36,13.18,15.64,3.9,22.48.18Z"/><path class="cls-14" d="M103.67,601.34c-3.79-2.07-8-1.35-12.17-1.47,6.06-3.15,14.12-.45,20.91-1.18,5.38,2.63,11,4.81,16.5,7.06C120.44,604.6,112.07,602.93,103.67,601.34Z"/><path class="cls-13" d="M128.91,605.75c-5.54-2.25-11.12-4.43-16.5-7.06a36.17,36.17,0,0,1,7.5-.1c4.65,3.71,11.12,4.8,16.48,7.44l-.06,1.54Z"/><path class="cls-14" d="M193.64,606l4.16-1.37Z"/><path class="cls-18" d="M67.28,586.53c-2.83-3.14-5.27-6.7-8.84-9l0,0c-7.08-17.94-19.8-15-36.15-15.39,9.55-2.51,22.76-4.4,31.57-1,4.06,6.23,4.59,13.24,10.53,16.43A57.39,57.39,0,0,1,67.28,586.53Z"/><path class="cls-6" d="M57,575.87l1.4,1.59Z"/><path class="cls-10" d="M116.91,598.37c-11.65,1-23.58-2.59-33,6.21l-1.57-.12C85,591.59,107.82,595.16,116.91,598.37Z"/><path class="cls-1" d="M276.31,427.44l12.88,3.06v1.18l-5.65.77c7.33,21-5.68,57.36-9.18,79.6-.67,6.74-6.16,10.44-10.27,15.08-1.06,2-2.62,3-4.45,2.17-1.65-1.15-1-3.81-2.88-5.52-.88,1.76-1.75,3.52-2.81,5.63-.39-1.52-.69-2.71-1-3.89-1.25,4.26-2.86,8.11-6.52,10.23-.52-2.11-1.13-4.56-1.73-7,11.44-23.42,15.11-49.94,22.09-74.91,4.38-7.28-1.38-17.74,4-23.89-.46-.89-.84-1.63-1.23-2.37C271.78,427.39,274,427.44,276.31,427.44Z"/><path class="cls-6" d="M334.36,430.46l8,3.06c-19.15,1.58-37.23-6-55.93-9.07,0-1,0-2,0-3h0c3.3.56,6.56,0,9.85-.35-1.38-24.68-2.8-49.46-2.4-74.29,1-15.26,25.61-7.64,36-9.31-4.09.68-19.36.17-18.07,6-.74,10.26-6.73.44-1.84,19,.64,20.21-3.1,40.64,2.57,60.49l6.74,1.48.14.15c-.52,3.19,1.5,3.09,3.66,2.81ZM315,338.68c-.3-.21-.48-.48-.83-.27C314.28,339.05,314.56,338.82,315,338.68Z"/><path class="cls-8" d="M276.31,427.44c-2.27,0-4.53-.05-6.79.13.39.74.77,1.48,1.23,2.37-5.35,6.15.41,16.62-4,23.89-4,15.94-7.53,32.22-12.67,47.92,3.86-26.93,10.5-53.19,12.86-80.37C270,423.45,273.7,424.91,276.31,427.44Z"/><path class="cls-18" d="M286.46,424.45c13,2.86,26,5.22,38.8,8.87-8.94,1.87-16.8-3.23-25.61-2.93-4.54-.68-9-2.41-13.54-2.95-2.3.18-2.76-1.09-2.75-2.93Z"/><path class="cls-20" d="M241.26,544.43c-3,6-8.82,8.32-14.82,5.28l-.37-.69c6,1.33,6.73-3,9.49-7,3.16-3.69,6.91-6.83,8.3-11.79C244.48,535.21,242.66,539.76,241.26,544.43Z"/><path class="cls-10" d="M246.14,525.87c-.82,1.62-1.61,3.27-2.56,4.81l-3.71.1Z"/><path class="cls-1" d="M276.07,427.06l-1.61-1.15Z"/><path class="cls-6" d="M232.27,551.36l1.66-.16c0,.48,0,.95,0,1.43-4.27,1-15.8.48-14.64,5.75,1,3.58,4.24,4.44,7.71,4.21,2.35-.24,4.17.29,3.83,2.93-4.7-1-9.36-2.23-14.1-3l-9.84-8.94C215.31,552.62,224.31,554.27,232.27,551.36Z"/><path class="cls-5" d="M193.07,568.51c-10.34-3.91-20.86-6.1-30-12.55-4.23-7.35-13.91-13.77-11.7-23.06.51.65,1,1.3,1.55,1.94,6.26,2.09,10.17-5,15.79-5.26-20.39,17.61-13,15.3,6.39,24.19l-.84,2.38c4,1,6.24,5.47,11.06,5.26,10.81,2.75,21.63,7.27,32,11.6C209.16,571.85,201.13,570.08,193.07,568.51Z"/><path class="cls-18" d="M175.77,562.88c20.45,12,43.39,14.81,66,20.49-.23.28-.45.57-.67.85-5-.76-9.38-4.5-15-2.59-6.32-2.24-14.3-2.92-21.13-4.31-9.75-3-18.88-8.19-28.11-12.58C176.33,564.47,176.13,563.52,175.77,562.88Z"/><path class="cls-17" d="M152.26,541.34c3.52,5.65,9.16,10.46,11.29,16.73L159,555.59C157,550.86,151.51,546.68,152.26,541.34Z"/><path class="cls-18" d="M174.71,562.54l1,.33Z"/><path class="cls-7" d="M187.07,605.38c-9.43,1.09-31.86,11.64-38.66,6.55.09-1.49.17-3,.25-4.47,8.46,1.92,17.23,2.5,24.86-2.65,7.5-4.13,16.24-6.67,23.46-11.58-19.75-11.92-27.66-7.73-44.09-36.12-5.14-6-10.9-11.7-12.61-19.72-7.53-10.95-6.34-25.62-3.58-38,7.66,21.86,8.13,48,25.23,66.1,6.18,13.68,21.61,18.4,34.41,23.83,4.24,2.6,4.19,3.79.32,6.78C193.38,599.05,190.67,602.72,187.07,605.38Z"/><path class="cls-16" d="M161.9,565.47c-14.17-17-20.22-39.85-22.46-61.52,2.53,8.75,4.95,17.53,7.67,26.22,1.74,4.55,5.75,8.79,5,13.9C156.31,550.85,160.33,557.53,161.9,565.47Z"/><path class="cls-16" d="M183,584.07c-7.51-3.12-18.15-11-21.11-18.57C168.5,572.15,177.38,576.67,183,584.07Z"/><path class="cls-16" d="M195.05,588.59l-11.38-4.53C187.24,583.05,194.38,585.9,195.05,588.59Z"/><path class="cls-3" d="M217.3,573c-10.37-4.33-21.19-8.85-32-11.6-4.82.21-7-4.22-11.06-5.26l.84-2.38c-4-1.85-7.84-3.64-11.68-5.44,6.94-1.51,13.8.9,20.65,1.77,4.88-1.58,10.25-.78,15.4-.88l-2,1.51,2,1.87c-.64,4.23.83,7,5,8.64,4.05,2.5,7.94,5.63,12.58,7.26,1.94,4.68,6.93,2.53,10.85,3.35,2.88,2.53,4.84-.2,7.09-1.23l1.89.88c-.52,1.52-1,3-1.57,4.57C229.31,575.07,223,575.39,217.3,573Z"/><path class="cls-11" d="M221.09,574.37l14.22,1.7,2.62,2.8c-15.39-.49-31.73-3-44.86-10.36,8.06,1.57,16.09,3.34,24.23,4.5l.16.09Z"/><path class="cls-8" d="M227.9,571.85c-7,.56-11.58-3.79-14.94-9.38,7.18.52,12.48,6.71,20.11,6.16Z"/><path class="cls-14" d="M216.69,563l-3.73-.48c-3.3-3.28-9.4-3.4-9-9.65,5.4,1,8.53,6.51,12.8,9.65A2,2,0,0,0,216.69,563Z"/><path class="cls-5" d="M381,169.53l-.09-12.09,3-2.2c2,17.23-1.11,34.45,0,51.76C379.65,195.06,385.11,181.39,381,169.53Z"/><path class="cls-3" d="M381,169.53c3.19,10.2.48,21.67,1.44,32.34A36.08,36.08,0,0,1,384,213.32c-.39,3.44,3.79,17.76.19,17.84-.92-5.83,1.17-11.9-2.31-17.15C379.35,200,381.76,184,381,169.53Z"/><path class="cls-5" d="M384.2,231.16c3.88-.33-1.49-18.25-.25-22.69,3.94,7.44,2.61,15.17,4.57,23.14,5.41-1.06,11.11-4.53,16.54-2.75-4.95,1-19.22,8.62-22,3.91Z"/><path class="cls-3" d="M383.92,155.24l-3,2.2c-.27-2.29.8-3.16,3-2.86A1.47,1.47,0,0,1,383.92,155.24Z"/><path class="cls-5" d="M388,216.11c0,.51-.06,1-.08,1.53C387.89,217.13,387.92,216.62,388,216.11Z"/><path class="cls-15" d="M405.06,228.86c-4.73-1.84-9.6,1.36-14.37,2l-.6-12.71c7,3.2,15.74,3.83,21.49,8.92Z"/><path class="cls-12" d="M368.15,186.74c1.39-7.41-5.17-35,9-29.06a3,3,0,0,1,.89,2.23q.13,24.89.1,49.77c0,2.66-6.78,6.47-8.89,5-2.82-8.48-.37-18.9-1.15-28Z"/><path class="cls-1" d="M374.12,229.64c-1.42-4.79-2-8.45-6.61-11.3,4.9-1.1,8.57-4.12,12.28-2.38C377.66,221.77,381.5,227.49,374.12,229.64Z"/><path class="cls-1" d="M301.41,206.89a88.64,88.64,0,0,1,0-26Q301.4,193.89,301.41,206.89Z"/><path class="cls-13" d="M319.41,338.33c4.46.13,9.52-2,13.65-.16-2.87,18.38-1.38,37.06-1.63,55.6.11,7.77.47,15.54.72,23.32-.77,4.8-.77,9.26,2.21,13.37-5.19-1.68-11-2-15-6-2.51-13.71-2.08-27.35-1.47-41.31-1.22-14.19-.78-28.35,2.8-42.28Z"/><path class="cls-10" d="M312.18,337.38c-7.31-.31-18-.52-18.25,9.39-.05,9.1-1,18.33.2,27.29,2.23,15.7-.09,31.42,2.2,47-3.29.38-6.55.91-9.85.35.74-29-1.93-58.09,1.58-87.06Z"/><path class="cls-1" d="M383.37,245.83l.69,1c-11.47.24-22.52,2.54-34,2.13,1.42-2.75,1-7.48,4-8.9,11-2.73,22.24-3.86,33.55-5.17-1.89,2.16-8.2-.33-7.87,3.83C380.15,241.24,379.2,245,383.37,245.83Z"/><path class="cls-3" d="M264.75,240.88c-3.12-8.26-19.37-8.69-17.21-15.91l19.2,6.43C266.07,234.58,265.41,237.73,264.75,240.88Z"/><path class="cls-1" d="M268.3,243.21c10.16-3.84,3.73-7.41,6.82-9.31,2.88,2.92,3.16,6.83.67,10.61Z"/><path class="cls-8" d="M306,236l1.28-1.06,16.23.8C317.64,237.64,311.8,236.47,306,236Z"/><path class="cls-8" d="M350,248.92l8.41.05c-8.52,1.6-18-.23-26.79.13C337.77,248.52,343.91,249.11,350,248.92Z"/><path class="cls-8" d="M296.69,248.41c0,.16.09.33.12.5l-15.76-.83.09-1.3Z"/><path class="cls-8" d="M293.14,235.32l2.36,0Z"/><path class="cls-4" d="M387,235.45a2.4,2.4,0,0,0,.85-1.29L390,234q-.42,6.36-.85,12.73C386.35,243.72,387.65,239.19,387,235.45Z"/><path class="cls-2" d="M388.33,376.25c.16,1.13.33,2.27.49,3.41l-.17,0C388.54,378.51,388.43,377.38,388.33,376.25Z"/><path class="cls-8" d="M358.38,249c8.53-1.1,17.09-1.8,25.68-2.21-.25,3.71-.17,6.3,1.47,10a92.26,92.26,0,0,1-23.15,3.93l-.12-1.16,8.38-1.11-3.91-3,4.75-.72c-.06-1.06-.12-2.1-.22-3.89Z"/><path class="cls-8" d="M379.31,259.48l.91-.05Z"/><path class="cls-9" d="M355.33,430.71l-4.22,1.1Z"/><path class="cls-8" d="M383.37,245.83c-4.17-.82-3.22-4.59-3.67-7.15s2.15-2.53,4-2.7C383.6,239.26,383.49,242.55,383.37,245.83Z"/><path class="cls-3" d="M396.08,233.83c5.76-.28,15.41-6.65,18.89-4.77-.4,1.2-.57,3.29-1.25,3.48-5.76,1.35-11.62,3.07-17.59,2.66Z"/><path class="cls-17" d="M262.57,457.36l-1.7,4.74-.6-4.52-.19-.15c-.37-4.79-2.21-5.84-6.14-3.15-3.64,3-7.35.9-11.34.27-6.24-.27-2.95-3.94-2.75-8.13-2.43-6.94,10.51-25.48.61-24.9-4,.68-12.44-2.46-11,4.38-6.91,3.63-13.88,7.15-20.94,10.5l2.49-4.09-8.51,3.29C204.1,412,277,412.33,259,420.93l4.64.86-4,2.92,4.64,2.47C263.4,436.56,262.37,447.51,262.57,457.36Z"/><path class="cls-5" d="M207,426.5c-3.8,6.33-7.81,18.38-16.58,17.42A29.65,29.65,0,0,1,207,426.5Z"/><path class="cls-17" d="M431.91,417c.06.83.11,1.66.17,2.65,3.63-1.41,6.66-2.23,10.43-1.93-.31,3.55-11.34,3.6-14.72,4.46C428.89,419.87,428,416.32,431.91,417Z"/><path class="cls-19" d="M136.7,499.4c-2.76,12.36-3.95,27.05,3.57,38,1.72,8,7.48,13.74,12.62,19.72,16.39,28.35,24.35,24.22,44.09,36.12-16.79,8.45-42.44,26.6-57.65,6.84l.09-.93c4.45.77,8.86,2.24,13.28-.5,2.54-1,6.64.68,9.26-.33,10-4.51,19.74-1.32,30.21-4.79-13.62-5.37-24.31-7.83-34.66-18.65-11.92-11.32-26.09-22.39-33.27-37.29-.85-7.44-1.63-7.91-8.75-8.18-1.21-6.84,5.82-11.61,5.9-18.46A71.13,71.13,0,0,1,133.5,499.3Z"/><path class="cls-8" d="M139.62,496.74c8.53-2.94,12.78-12.78,19-17.65-.37,6.62-7.63,11.51-4.93,18.43l-.82,1.34c-.15,0-.27-.35,0,0-2.5,1.87-8.42,5.77-10.92,7.65C141.2,503.35,140.4,499.9,139.62,496.74Z"/><path class="cls-3" d="M111.65,561c-1.41-2.39-2.3-4.78-.6-7.4q-.09-5-.19-10c-1.54,4,.79,8.44-5.16,5.72-7.75-2.45-15.59-4.61-23.41-6.83a4.29,4.29,0,0,1-.5.19c9,4.64,20.73,6.49,27.35,14.35l-5.74-.51,1.39,1.6c4,.15,4.71,1.2,4.6,6.65C112.69,565,113.16,563.54,111.65,561Z"/><path class="cls-17" d="M136.7,499.4l-3.2-.1c2.25-2.57,6.3-5.95,6.82-.23,1.22,6,2.75,11.88,4.34,18.67l.93-2.14c1.91,7,6.5,14.14,5.19,21.49C143.15,525.75,143.89,510.85,136.7,499.4Z"/><path class="cls-8" d="M106.44,553.73c-8-4.09-16.29-7.7-24.65-11.08-2.54.56-5-.63-7.67-.35,9.18,5,20.51,6.42,28.17,14,2.29.41,3.63.38,6.85.71C107.87,555.41,107.35,554.19,106.44,553.73Z"/><path class="cls-10" d="M111.05,553.57c0-8.94-.55-19.29,4.2-27.07-.14,10.36-.1,21.38-2.16,31.45C112.44,556.47,111.83,555,111.05,553.57Z"/><path class="cls-15" d="M152.43,498.77a3.73,3.73,0,0,0,.46.09c-.38,6.31-5.17,11-9,15.55-.43-2.55-1.47-5.35-1.9-7.9C144.93,504.25,149.57,501.12,152.43,498.77Z"/><path class="cls-13" d="M115.25,526.5l-2,3c1.48-6.72,2.18-13.8,8.15-18.54C121.09,516.81,116.65,521.06,115.25,526.5Z"/><path class="cls-13" d="M143.87,514.41c2.06-2.51,5.43-6.54,7.49-9l2.21.16c-.27,5-7.32,6.56-7.17,12.07-.27-.66-1.47.81-1.74.15C144.53,516.84,144,515.31,143.87,514.41Z"/><path class="cls-13" d="M124.46,507.91,122.87,509Z"/><path class="cls-13" d="M126.57,504.87c-.18.4-.37.8-.55,1.19C126.2,505.66,126.39,505.27,126.57,504.87Z"/><path class="cls-13" d="M122.72,509.21l-.55.59Z"/><path class="cls-13" d="M122,510l-.38.57Z"/><path class="cls-20" d="M113.86,556.22q.81-13.41,1.63-26.82c7.12.27,7.9.74,8.75,8.18,7.18,14.9,21.35,26,33.27,37.29,10.44,10.88,21,13.23,34.66,18.65C181.71,597,172,593.8,162,598.31c-2.62,1-6.72-.71-9.26.33-4.42,2.74-8.83,1.27-13.28.5-14.63-6.48-29.92-8.09-45.75-8.18l-1-1.28L91.36,591H89.23c-4.43-7.89-22.18-7-22.23-12.75-8-1.26-8.76-10.29-13.17-17.13-4.57-2.62-11-1.25-17.18-1.66,2.92-4.4,7.85-9.3,13.26-6,11.91-3.23,40.57,26,46.06,12.05a73.67,73.67,0,0,0,12,3.64c4.27,1.22,8.31,4.41,12.88,3.34C119.61,566.7,116.11,561.65,113.86,556.22Z"/><path class="cls-13" d="M91.32,561.05c-6.84-2.13-11.16-8.56-17-11.78-9.79-4-20.76-1.74-30.92-.35,6.68-4,15.14-2.31,22.62-3.74,8.65-1.5,13.07,4.91,19.46,9v0l.77.72h0l.76.73h0a71.15,71.15,0,0,0,12,6.06l0,0a10.92,10.92,0,0,0,3.16.78l3.42,2.33C100.63,564.78,96.05,562.21,91.32,561.05Z"/><path class="cls-15" d="M85.23,552.23c-2.14-1.44-4.85-2.61-2.81-6-3.87-1.46-7.37-4.72-11.69-3.65l-.08.25c-9.37,1.41-21.8.53-29.54,6.15,7.93-2.53,16.37-3.12,24.91-3.78,8.64-1.51,13.06,4.9,19.45,9Z"/><path class="cls-18" d="M91.32,561.05c5.44,1.78,10.78,3.61,16.43,4.21a.6.6,0,0,0,.16.69,12.38,12.38,0,0,1,0,3.16C101.72,567.78,95.46,566.25,91.32,561.05Z"/><path class="cls-1" d="M153.71,497.52c-2.2-5.85,2.49-10.45,4.45-15.64.7-4.94,4.74-8.65,7.16-12.95,4.71-1.13,5.06-8.37,10.37-8.38C171,473.69,164.13,487.73,153.71,497.52Z"/><path class="cls-14" d="M196.34,442.47A24.93,24.93,0,0,1,211,432.31c-3.94,7-10.34,12.56-17,16.54-5.64,5.89-9.93,13.21-18.18,15.73l-.42-2.38c2.64-2.31,3.52-6,5.28-9,1.18.85,1.55-1.08,2.31-1.73C188.53,455,192.53,445.36,196.34,442.47Z"/><path class="cls-15" d="M196.34,442.47c-3.8,2.89-7.81,12.53-13.42,9l7.49-7.56C192.47,445.23,194.37,443.09,196.34,442.47Z"/><path class="cls-8" d="M180.61,453.21l-3.76,7.49c-6.07-1.42-6.6,7-11.53,8.23C169,465.59,176.18,451.56,180.61,453.21Z"/><path class="cls-19" d="M64.36,577.52c.92.23,2.63.45,2.64.7,0,5.72,17.89,4.92,22.23,12.75-4.79,2.35-7.59,7.93-13.59,6.27C70.42,591.29,66.3,585.24,64.36,577.52Z"/><path class="cls-18" d="M75.64,597.24c6,1.66,8.8-3.92,13.59-6.27,17.25-.19,34.23,1.09,50.19,8.17l-.09.93c-4.7-.62-9.36-1.62-14.11-1.68-7.81-5.09-19.55-4.65-28.62-5.3C90.44,591.67,78.73,604.49,75.64,597.24Z"/><path class="cls-10" d="M125.22,598.39a14.46,14.46,0,0,1,9.48,3.18c2.68,2.32,7.68,2.31,7.72,7.38-7.11-4.21-15.87-5.65-22.51-10.36Z"/><path class="cls-13" d="M81,604.61c-.43,1.42-.94,4.09-1.28,4.07-6.59.62-8.1-5.58-10.79-10.17C73.68,601.11,74.81,608.56,81,604.61Z"/><path class="cls-13" d="M82.39,603c0,.49,0,1,0,1.47l-1.35.09Z"/><path class="cls-13" d="M148.41,611.93c5.64,4,12.06-.18,18-1.23-6.83,3.71-20.13,13-22.48-.18Z"/><path class="cls-6" d="M148.41,611.93c-2.16-.77-4.63-.93-6-3,0-5.07-5-5.06-7.72-7.38-1.6-1.39-3.83-2-5.78-3l10.41,1.52a18.05,18.05,0,0,0,9.33,7.39C148.58,609,148.5,610.44,148.41,611.93Z"/><path class="cls-16" d="M254.91,494.32c-.26,2.68-.63,5.36-.83,8.05-3.64,4.23-4.15,10.19-6.26,15.24-9.67,1.19-19.36,1-28.62,4.37-10.62-.17-21.36,5.09-31.47,0,10.68-10.32,22-19.37,33.69-28.4C231.47,483.75,244.43,487.53,254.91,494.32Z"/><path class="cls-14" d="M247.82,517.61c2.11-5.05,2.62-11,6.26-15.24-2.5,18.58-10.62,29-27.23,37C229.54,529.27,240.91,524.64,247.82,517.61Z"/><path class="cls-10" d="M319.41,338.33l1.26,2.49c-3.58,13.93-4,28.09-2.8,42.28-.61,14-1,27.6,1.47,41.31l-6.74-1.48c-5.67-19.84-1.93-40.28-2.57-60.49-.45-4.88-4.68-11.53,1.06-14.73C313.71,339,308.09,342.05,319.41,338.33Z"/><path class="cls-10" d="M319.48,424.56l3.66,2.81C321,427.65,319,427.75,319.48,424.56Z"/><path class="cls-13" d="M315,338.68c-.47.14-.75.37-.83-.27C314.55,338.2,314.73,338.47,315,338.68Z"/><path class="cls-7" d="M247.82,517.61c-4.37,4.11-9.38,7.5-14,11.29-8.43,4.09-15.53,14.84-25.52,15.71-12.48-1.14-42.18,3.26-50.84-4a92.56,92.56,0,0,1,11.25-11.06c3.1.28,7.6-1.35,3.61-4.56l2.46-2.69-5-1.16c12.8-6.36,15.13-21,19.83-33.33,2.17-6.7,3.44-13.72,5.16-20.52,1.86-5.39,1.84-5.67-2.3-8-2.43,2.28-5.5,3.76-8.25,5.63,0-.68.09-1.36.13-2,10.15-9.55,19.81-20.27,32.23-26.83.3.37.6.74.89,1.12C212,456.27,202.54,474,199,493.5c5.38-.11,10.3-4.37,14.7-7.19,10.63-8.57,23.79-12.78,37.14-14l7,4.67c.3,5.59-2.09,11.74-2.93,17.34-10.49-6.78-23.43-10.58-33.49-.68-11.69,9-23,18.07-33.69,28.39,10.1,5,20.86-.22,31.47,0C228.46,518.64,238.15,518.8,247.82,517.61Z"/><path class="cls-16" d="M258,479.58l-.14-2.6-7-4.67c-13.35,1.22-26.51,5.43-37.14,14-4.4,2.82-9.32,7.09-14.7,7.19,3.53-19.53,13-37.23,18.47-56.29-.29-.38-.59-.75-.89-1.12-7.14,3.31-12.64,9.07-18.81,13.84l-.33-2.93c8.81-10,20.19-15.36,32-21.1,18.66-1.92-12.8,35.9-4.45,43.4,3-.43,6.57-.32,8.87-1.92,5.34-3.75,11.37-3.11,17.14-3.75C260.84,461.68,259.51,473.15,258,479.58Z"/><path class="cls-2" d="M259.46,469.75c-1.93-5.38-3.13-6.71-8.47-6.12-5.77.64-11.8,0-17.14,3.75-2.3,1.6-5.85,1.49-8.87,1.92-8.36-6.34,23.09-46.82,4.45-43.4-1.41-6.85,7-3.69,11-4.38,9.89-.62-3,18-.61,24.9-.2,4.19-3.49,7.87,2.75,8.13,4,.63,7.7,2.73,11.34-.27,4.35-3.65,7.22.32,5.55,4.79l.57.14.21-1.63C261.3,461.69,260.24,465.68,259.46,469.75Z"/><path class="cls-19" d="M239.08,531c1.43-.49,3-.22,4.5-.35-1.27,5.79-6.73,8.7-9.52,13.4-1.84,7.8-10,4.39-15.46,3.4C226.1,543.07,232.08,536.24,239.08,531Z"/><path class="cls-5" d="M206.94,553.53a27.44,27.44,0,0,0-7.5-.93l-2-1.87,2-1.51c10.9.4,22.28-.82,32.82,2.14C224.31,554.27,215.31,552.62,206.94,553.53Z"/><path class="cls-13" d="M226.44,549.71c-8,.51-15.44-.34-22.79-3.5,7.52.66,15.08.95,22.42,2.81Z"/><path class="cls-15" d="M157.44,540.64c3.55,4.32,10,2.7,15,4,7.52,2.9,16.1,1,24.06,1.68-15,4.56-12,3.8-27.46,1.49C163.88,548.7,153.48,548.78,157.44,540.64Z"/><path class="cls-14" d="M151.35,532.9l-1.53-4.69,7.62-3.16c-.3,1.35-.61,2.71-1,4.32l6.95.38c-3.46,1.79-7,3.5-10.52,5.09C152.38,534.2,151.86,533.55,151.35,532.9Z"/><path class="cls-13" d="M163.42,529.75l-6.95-.38c.36-1.61.67-3,1-4.32,1-.82,2.33-1.68-.2-2.18-.14-.27-.27-.55-.41-.83,4.66-.51,8.88.46,3.84,5.06,4.09,1.92,7.89-1,12.17.48l-1.21,1.89C168.89,529.61,166.16,529.47,163.42,529.75Z"/><path class="cls-15" d="M163.42,529.75l3.76-.25c-4.66,2.27-8.69,6.84-14.28,5.34C156.46,533.25,160,531.54,163.42,529.75Z"/><path class="cls-3" d="M159,547.59l2.2.65Z"/><path class="cls-15" d="M199.44,552.6l4.54.21c-.39,7.62,10,6.74,13.08,15.69-4.65-1.63-8.54-4.75-12.59-7.26C200.27,559.63,198.8,556.83,199.44,552.6Z"/><path class="cls-8" d="M187.36,549.12a26.34,26.34,0,0,1,24-.17,1.47,1.47,0,0,0-.63.24C202.93,549.14,195.15,549.24,187.36,549.12Z"/><path class="cls-15" d="M217.42,568.85l5.69,2.68C220.84,571.41,218.27,572,217.42,568.85Z"/><path class="cls-5" d="M221.09,574.37l-3.63-1.27Z"/><path class="cls-8" d="M212.9,562.45,211.2,561Z"/><path class="cls-14" d="M153.71,497.52l5.15-4.92,1.61,1.53-6.9,11.39-2.21-.16C152.16,502.76,152.18,499.82,153.71,497.52Z"/><path class="cls-9" d="M85.47,554.16c-2.74-10.15,13.65,2.48,17.93,2.33a13.5,13.5,0,0,1,2.59,3.92c-2.48,1.4-4.38,2.72-7,1.25l0,0-.9-.48-.11-.05a53.42,53.42,0,0,1-11-5.53h0l-.76-.73h0l-.77-.72Z"/><path class="cls-11" d="M102.1,562.44l3.89-2-1.2-2.32c4,.15,4.71,1.2,4.6,6.65l-1.64.52-1-.28c0-.16,0-.32,0-.48l-.09.47C104.87,564.82,103.61,563.3,102.1,562.44Z"/><path class="cls-8" d="M107.75,565.26c10.5-.71-.82-6.23,3.3-11.69,1.74,5.9,8.29,15.33-3.14,12.38A.6.6,0,0,1,107.75,565.26Z"/><path class="cls-7" d="M156.83,522c.14.28.27.56.4.83l-8.07,3.39c-4.88-12.43-2.34-10.37,4.49-19.75l3.64-1.17c3,2.19-.07,4.08-.53,5.89C155.83,514.93,154.46,518.44,156.83,522Z"/><path class="cls-15" d="M149.16,526.26l8.07-3.39c5.11,1.41-6.11,4.47-7.41,5.34Z"/><path class="cls-11" d="M102.29,556.29c-3.18-.44-17.92-10.17-17.06-4.07-2.14-1.43-4.85-2.6-2.81-6C89.4,548,97,551.29,102.29,556.29Z"/><path class="cls-15" d="M86.9,547.43l-3.11-1.15Z"/><path class="cls-4" d="M108,569.11c0-.67.07-1.33.1-2l9,2.84,1.09-.89c-1.53-4.08-6.73-8.36-4.24-12.83,2.25,5.42,5.75,10.47,7,16.22C116.27,573.52,112.23,570.33,108,569.11Z"/><path class="cls-1" d="M113.09,558l-.06,1.38c-.41-1.45-.83-2.9-1.24-4.35Z"/><path class="cls-6" d="M157.29,505.34l-3.64,1.17c0-.34-.05-.66-.08-1,3.21-4.5,5-10.39,9.69-13.5A20,20,0,0,1,157.29,505.34Z"/><path class="cls-19" d="M93.67,591h-2.3l1.33-1.28Z"/><path class="cls-15" d="M87,555.62l6.63,3.89Z"/><path class="cls-15" d="M93.65,559.52l2.19.78Z"/><path class="cls-15" d="M95.88,560.32l2.08.83Z"/><path class="cls-15" d="M98.94,561.66l2.38.76Z"/><path class="cls-15" d="M98.07,561.2l.9.48Z"/><path class="cls-15" d="M85.47,554.18l.77.72Z"/><path class="cls-15" d="M86.24,554.9l.76.73Z"/><path class="cls-1" d="M114.16,561.9q2,3.58,3.94,7.16L117,570l-9-2.84-.15-1.16C112.12,566.5,115.84,567.59,114.16,561.9Z"/><path class="cls-13" d="M106.66,565l.09-.47c0,.16,0,.32,0,.48Z"/><path class="cls-10" d="M163.26,492l-2.79,2.11-1.61-1.53c3.51-5.74,7.6-11.14,10.61-17.15,6.84-3.77,8-12.29,14.9-15.73,0,1.75,0,3.49-.14,5.24C175.09,472.24,169.67,482.51,163.26,492Z"/><path class="cls-13" d="M179.93,462.8c-3,4.65-5.5,9.65-10.46,12.65q2.92-6.63,5.86-13.25l.42,2.38Z"/><path class="cls-13" d="M169.38,475.6c-.47.94-.94,1.89-1.42,2.83C168.44,477.49,168.91,476.54,169.38,475.6Z"/><path class="cls-13" d="M175.69,460.55l1.16.15c-.4.41-.8.81-1.19,1.22Z"/><path class="cls-13" d="M184.36,462.92c0-1.07,0-2.14,0-3.2,4.33-4.25,7.24-10.45,13.08-12.72l.33,2.93Q191.06,456.42,184.36,462.92Z"/><path class="cls-10" d="M203.65,546.21c-10.3-.55-21.39,1.52-31.24-1.6,12,0,23.92.08,35.87,0a11.76,11.76,0,0,0,7-2.33c6.58-3.83,12.08-9.88,18.51-13.38-2.37,3.41-6.61,6.07-7,10.49l4.76-2.3c-4.35,3.44-8,8-13,10.39Z"/><path class="cls-10" d="M239.08,531l-5.16,4.37Z"/><path class="cls-10" d="M233.81,535.49l-2,1.48Z"/><path class="cls-19" d="M169.15,483c5.46-10.09,13.87-17.52,23.33-23.68,4.14,2.32,4.16,2.6,2.3,8-4,17.23-8.18,35.09-18.28,49.93a24.2,24.2,0,0,0-6.71,3.92l5,1.16L172.3,525c-5.44-.1-6.4-1.18-4.65-7.06-4.37,1.86-6.68,4-10.82,4.08-2.37-3.6-1-7.11-.07-10.81.46-1.81,3.5-3.7.53-5.89a20,20,0,0,0,6-13.32l.21-.16C167.41,491.54,168.93,489.17,169.15,483Z"/><path class="cls-6" d="M159.76,521.74l7.89-3.78c-1.75,5.88-.79,7,4.65,7.06,2.32,2.25,2.18,3.17-.67,4.45l1.21-1.89c-4.28-1.5-8.08,1.44-12.17-.48C163.54,523.9,164.34,523.06,159.76,521.74Z"/><path class="cls-17" d="M260.27,457.58l-.21,1.63-.57-.14.6-1.64Z"/><path class="cls-3" d="M210.71,549.19c1.18-.56,2.61.38,3.86.48Z"/><path class="cls-3" d="M202.45,549.17h0Z"/><path class="cls-1" d="M113.19,559.69l.7,1.74Z"/><path class="cls-6" d="M169.15,483c-.22,6.16-1.74,8.53-5.68,8.85Z"/><path class="cls-1" d="M332.88,68.22c-9.39-5.53-4.42-3.5-5-12.86-.37-5.38-4-13.52,3.92-15.27.16,0,.2-.66.3-1l1.46.21c5.13,4.27,7.69,6.44,2.7,12.33-.56,4.94-2.12,10.66,1.87,15C336.37,67.15,334.69,68.15,332.88,68.22Z"/><path class="cls-8" d="M338.13,66.66c-4-4.36-2.43-10.1-1.87-15,4.2-5.69,3.51-6.32-1.11-11.16,0-.31,0-.62.07-.93l.06-.22,8.2,7.94C346,52.37,347.36,68.41,338.13,66.66Z"/></g></g></svg>