<svg xmlns="http://www.w3.org/2000/svg" viewBox="0 0 286.04 331.23"><defs><style>.cls-1{font-size:12px;font-family:MyriadPro-Regular, Myriad Pro;}.cls-2{fill:#d15e32;}.cls-3{fill:#4c2b3d;}.cls-4{fill:#68343e;}.cls-5{fill:#588f8b;}.cls-6{fill:#3a8290;}.cls-7{fill:#072b61;}.cls-8{fill:#0f6486;}.cls-9{fill:#b1835c;}.cls-10{fill:#0a5279;}.cls-11{fill:#1c6b8a;}.cls-12{fill:#3b7a88;}.cls-13{fill:#92836b;}.cls-14{fill:#24758f;}.cls-15{fill:#45878e;}.cls-16{fill:#6e9480;}.cls-17{fill:#c58755;}.cls-18{fill:#63817e;}.cls-19{fill:#ee833d;}.cls-20{fill:#7b8276;}.cls-21{fill:#834041;}.cls-22{fill:#08557c;}.cls-23{fill:#dc844a;}.cls-24{fill:#25798f;}.cls-25{fill:#3c263e;}.cls-26{fill:#9a4a40;}.cls-27{fill:#b55439;}.cls-28{fill:#f0632d;}.cls-29{fill:#b2523c;}.cls-30{fill:#a44b3d;}.cls-31{fill:#814042;}.cls-32{fill:#9c4941;}</style></defs><g id="Calque_2" data-name="Calque 2"><g id="Calque_3" data-name="Calque 3"><text class="cls-1" transform="translate(135.49 27.92)">TBR</text><path class="cls-2" d="M203.27,40.81c-1,.34-2.08,1.14-3,.95C171,35.3,177,54,178.65,71.05c4.12,41.69,7.39,83.46,11,125.2L165,192.4c1.22-31.92-2.76-64.15-5.21-96l-2.25-1.53c.76-14.75,4.78-29.46.7-44.17.78-1.3,4.13-1.65,4.24-2.55.29-7.94-.85-16.14.78-23.75-2.33-20.54,12.3-7.89,23.44-2.94-3.18.3-7.78-.08-7.88,3.84C173.82,46,189.11,39.71,203.27,40.81Z"/><path class="cls-3" d="M115.41,13.74l6.81-3.6c-1.7,60.62-8.5,121.54-12,182.25-3.78.9-7.54,1.86-11.26,3l-1.43-.84c4-49.2,8.2-98.39,12.05-147.6.88-.51,2.48-.94,2.54-1.54C113.36,34.84,114.36,24.29,115.41,13.74Z"/><path class="cls-4" d="M110.26,192.39c3.46-60.71,10.26-121.63,12-182.25C130,6.8,135.75-1.53,145.72.25,139.34,1.81,132,3.87,131.8,11.3c-.59,19.09-5.38,38.2-.58,57.35-1.24,1.6-3.54,3.17-3.58,4.81-1,32.06-1.33,64.15-2.63,96.21C125.57,178.92,124.4,193.52,110.26,192.39Z"/><path class="cls-5" d="M169.41,252.49,216.67,266c-1.9,1.79-5.68,4-5.38,5.29,4.15,14.5-1.44,28.7,1.62,43.24-7.3,6-8.43-2.64-11.95-5.22C193.8,304,186.89,298.43,179.87,293c-.9-1.21,6.81-6.92-2.12-4.06-.49.16-1.43-1.05-2.16-1.63,5.12-5.74-1.63-7.87-3.37-11.65C168.85,268.3,158.06,261.66,169.41,252.49Z"/><path class="cls-6" d="M169.41,252.49c-11.35,9.17-.56,15.81,2.81,23.14,1.74,3.78,8.49,5.91,3.37,11.65.73.58,1.67,1.79,2.16,1.63,8.93-2.86,1.22,2.85,2.12,4.06-13.77-6.43-28.16-9.64-43.41-8.41-1-4.18-4.37-1.3-6.48-2.15-7.1-2.86-8.63-10.22-12.28-15.75-1.29-3.12.88-9,4-11.43a29.84,29.84,0,0,0-7.26-1.59c3.7-.74,7.47-1.06,11.21-1.59l-2.07-.48A172.54,172.54,0,0,1,169.41,252.49Z"/><path class="cls-7" d="M55.55,248.54C44.38,254.59,33.22,260.67,22,266.63a2.79,2.79,0,0,1-2.62-.62C-2.52,230.81-18,218.43,42.7,207c-.87,1.55-2.88,3.78-2.42,4.56C47.09,223.2,18.35,249.67,55.55,248.54Z"/><path class="cls-8" d="M98.18,298c-6.56,5.08-11.53,12.38-17.66,17s-12.89-4.51-19.1-8.19c-.22-2.39-2.83-3.95.73-7.19,10.31-9.41,3.78-24.21,9.74-35.31l22.55-7.47c-1.3,8.06-2.72,16-.15,24.24,1.39,4.45-2.23,9.65,1.5,14.33C96.33,296.12,94.83,297.32,98.18,298Z"/><path class="cls-9" d="M193.41,197l40,10.3c-4.41,4.72-11.87-9.8-15.28,2.59-3.53,12.83,8.74,19.34,11.5,29.82,2,7.47,8.46,13,17.09,14.19l9.7,7.81c-15-7.19-31-12.66-45.17-21.18-9.39-3.42-14.61-10.64-18.05-19.47C190.1,213.05,180,204.89,193.41,197Z"/><path class="cls-10" d="M55.55,248.54c-37.2,1.13-8.46-25.34-15.27-37-.46-.78,1.55-3,2.42-4.56l23.2-5.68c2.2,14.1-3.82,39.65,6.82,41.18Z"/><path class="cls-11" d="M72.72,242.51c-10.65-1.56-4.61-27.07-6.82-41.18l31.67-6.82,1.43.84-8.13,5.53c15.26,19.64-11.06,31.52,8.78,34.19Z"/><path class="cls-12" d="M99.65,235.07c-19.86-2.68,6.48-14.48-8.78-34.19,8-7.34,18.88-8.37,29.16-6.35-.19.25-.34.65-.59.73-3.71,1.15,1.73,7.27-4,7.31,3.12,6,5.81,12.35,9.48,18,3.2,5,4.41,13.25,13.69,10.7Z"/><path class="cls-13" d="M193.41,197c-13.38,7.9-3.31,16.06-.19,24.06,4.34,12.77,11.85,16.16,22.71,22.54l-36.14-9.06c0-.35.19-.75-.29-.82-25.65-5.29-3.27-34.12-26.47-41.4C166.66,191.82,180,194.74,193.41,197Z"/><path class="cls-14" d="M98.18,298c-3.35-.68-1.85-1.88-2.39-2.56-3.73-4.68-.11-9.88-1.5-14.33-2.57-8.24-1.15-16.18.15-24.24,10.35-1.23,20.9-5.16,31.19-4.82-3.74.53-7.51.85-11.21,1.59a29.84,29.84,0,0,1,7.26,1.59c-3.1,2.39-5.27,8.31-4,11.43,3.65,5.53,5.18,12.89,12.28,15.75,2.11.85,5.47-2,6.48,2.15A87.63,87.63,0,0,0,98.18,298Z"/><path class="cls-15" d="M131.17,304.88c16.83-6.26,49.76,2.36,55.31,20.39-17.67,5.05-35.63,7.19-54,5.26l6.56-1.19C121.19,325,148.28,316.43,131.17,304.88Z"/><path class="cls-16" d="M212.91,314.53c-3.06-14.54,2.53-28.75-1.62-43.24-.3-1.26,3.48-3.5,5.38-5.29,12.27,5.54,23.13,13.87,34.76,20.63C238.84,296.3,227.1,307.2,212.91,314.53Z"/><path class="cls-17" d="M246.74,253.89c-8.63-1.21-15.12-6.72-17.09-14.19-2.76-10.48-15-17-11.5-29.82,3.41-12.39,10.87,2.13,15.28-2.59l17.9,6.07-5.25,0c-3,0-3,26.78-.3,29.11C249.59,245.82,259.05,249.07,246.74,253.89Z"/><path class="cls-18" d="M138.63,231.3c-9.28,2.55-10.49-5.74-13.69-10.7-3.67-5.68-6.36-12-9.48-18,5.71,0,.27-6.16,4-7.31.25-.08.4-.48.59-.73-5.09-1.33-10.57-.34-15.81-.65,5.37-1.77,10.93-1.77,16.53-1.51,18.54.26,17.79,1.45,20.22,7.5,4.33,10.8,3.6,24.7,16.41,31.09C151.63,232.38,144.75,230.9,138.63,231.3Z"/><path class="cls-19" d="M272.44,222.3c18.63,7.72,18.16,19.55-1.67,42.07-9.43,1-7.91-5.81-8.95-11.68C257,225.57,257.8,222.8,272.44,222.3Z"/><path class="cls-20" d="M156.51,231.5c.38,0,.6-.31.87-.54-12.81-6.39-12.08-20.29-16.41-31.09-2.43-6.05-1.68-7.24-20.22-7.5,10.55-1.7,21.9-3,32.28-.06,18.84,5.35,7.51,24.23,15.42,34.79,3.21,4.27,7.17,4.79,11.05,6.61.47.07.28.48.29.82Z"/><path class="cls-21" d="M131.23,68.65c-4.81-19.15,0-38.26.57-57.35.23-7.43,7.54-9.49,13.92-11l2,1.06c-2.78.94-2.07,3.33-2.79,5.44-5,14.66-10.27,29.12-.23,43.8-7.31-1-12.08-.13-10.87,9.6.81,6.52-.27,12.77,9.4,10.81-3.59,7.59-5.55,15.43-3.76,23.86l-7.53.84c-1-1-2.87-2.08-2.81-3C129.62,84.62,130.47,76.64,131.23,68.65Z"/><path class="cls-22" d="M71.89,264.34c-6,11.1.57,25.9-9.74,35.31-3.56,3.24-.95,4.8-.73,7.19-8.6-6.88-17.22-13.73-25.73-20.72-.35-.3,0-2.43.67-2.85C47.54,275.73,58.72,268.15,71.89,264.34Z"/><path class="cls-23" d="M272.44,222.3c-14.64.5-15.43,3.27-10.62,30.39,1,5.87-.48,12.66,8.95,11.68-7.28,12.52-9.21-3.64-14.33-2.67l-9.7-7.81c12.31-4.82,2.85-8.07-1-11.37-2.69-2.33-2.67-29.08.3-29.11C255.5,212.89,263.67,219.45,272.44,222.3Z"/><path class="cls-24" d="M131.17,304.88c17.11,11.57-10,20.1,7.89,24.46l-6.56,1.19c-8.45-1.18-16.92-2.2-25.32-3.65-2.89-.49-5.59-2.05-8.38-3.13C106.89,313.66,118.53,307.33,131.17,304.88Z"/><path class="cls-25" d="M115.41,13.74c-1,10.55-2,21.1-3.25,31.63-.06.6-1.66,1-2.54,1.54.14-10.81-7.81-3.62-11.76-5-4.89-1.7-12.34,2.49-14.09-6-1.64-7.89,5.49-8.51,10.16-11C101.07,21.19,108.25,17.48,115.41,13.74Z"/><path class="cls-26" d="M144.69,50.55c-10-14.68-4.73-29.14.23-43.8.72-2.11,0-4.5,2.79-5.44l9,4.62c-4.49.52-1,4.07-1.44,4.53-7.9,8.75-5.69,34.51,3.69,39.46l-.74.76Z"/><path class="cls-27" d="M158.94,49.92c-9.38-5-11.59-30.71-3.69-39.46.42-.46-3.05-4,1.44-4.53l15.16,8c-11.72-4.15-7.86,6.92-8.63,10.5-1.63,7.61-.49,15.81-.78,23.75C162.42,48.77,160.16,49.33,158.94,49.92Z"/><path class="cls-28" d="M203.27,40.81c-14.19-1.1-29.44,5.22-24.49-15.53.1-3.92,4.7-3.54,7.88-3.84C192.52,25.66,216.56,32,203.27,40.81Z"/><path class="cls-29" d="M153,192.31l-5.28-1.48c7.54-9.13,1.45-20.24,4.2-29.75,4.18-15.45-15.44-35.71,7.23-47.42q.28-8.64.58-17.28c2.44,31.87,6.42,64.1,5.2,96Z"/><path class="cls-30" d="M143.22,71l14.49-.23c-13.47,1.6-7.5,12.7-8.89,19.6-1.38,8.34,7.75,1.93,10.93,6l-.57,17.28c3.84-17.18-5.71-20.35-19.72-18.84C137.67,86.39,139.63,78.55,143.22,71Z"/><path class="cls-27" d="M157.5,94.85c-3.47-.62-10,2.27-8.68-4.52s-4.58-18,8.89-19.6q.34-9.68.7-19.33C162.13,65.94,158.26,80.32,157.5,94.85Z"/><path class="cls-31" d="M131.23,68.65c-.76,8-1.61,16-2.11,24-.06,1,1.83,2,2.81,3,0,10.32-2.06,22.23,15.06,18.84l-8.24,2.9c-8.35-3.75-8.08,2.95-8.14,7.43-.29,22-.13,44-.13,66-5.2.87-10.36,1.9-15.66,1.44,11.62-3.76,9.85-14.23,10.19-22.58,1.3-32.06,1.67-64.15,2.63-96.21C127.68,71.82,130,70.25,131.23,68.65Z"/><path class="cls-32" d="M138.75,117.4c6-2.84,12.19-3.25,18.73-2.82-20.45,13.15-1.1,31.16-5.53,46.5-2.75,9.51,3.34,20.62-4.2,29.75l-15.71,0c16.43-17.53,4.14-44.54,6.4-65.92C138.54,122.48,142.92,119.91,138.75,117.4Z"/><path class="cls-21" d="M138.75,117.4c4.17,2.51-.21,5.08-.31,7.49-2.26,21.37,10,48.4-6.4,65.92h-1.56c0-22-.16-44,.13-66C130.67,120.35,130.4,113.65,138.75,117.4Z"/></g></g></svg>