<svg xmlns="http://www.w3.org/2000/svg" viewBox="0 0 845.93 668.77"><defs><style>.cls-1{fill:#f7f7dc;}.cls-2{fill:#c72225;}.cls-3{fill:#7d091a;}.cls-4{fill:#fab4b0;}.cls-5{fill:#6c5373;}.cls-6{fill:#f36a49;}.cls-7{fill:#7d5b7d;}.cls-8{fill:#fae5b7;}.cls-9{fill:#fbef04;}.cls-10{fill:#d087a2;}.cls-11{fill:#8c6889;}.cls-12{fill:#fb9fa4;}.cls-13{fill:#342c3e;}.cls-14{fill:#051e3e;}.cls-15{fill:#7ee8e4;}.cls-16{fill:#a77799;}.cls-17{fill:#016063;}.cls-18{fill:#9dd1f3;}.cls-19{fill:#f3f0fa;}.cls-20{fill:#abf4e2;}.cls-21{fill:#b0f7fa;}.cls-22{fill:#9ffbed;}.cls-23{fill:#fff;}.cls-24{fill:#f3872f;}.cls-25{fill:#faeb8e;}.cls-26{fill:#f4613d;}.cls-27{fill:#fa5f1a;}.cls-28{fill:#fb5e2e;}</style></defs><g id="Calque_2" data-name="Calque 2"><g id="Post"><g id="light_house" data-name="light house"><path class="cls-1" d="M482.18,302l-5.31-5.22c-.57-4,2.19-5.69,4.95-7.43,5.09-.6,24.6-9.86,27.22-5.09-14.57,5.15-20.51.16-22.89,17.53l20.21-7.27,2.68.64c-5.74,3.72-11.65,4.41-18.56,6.46,5.66,5.5,11.27,2.25,16.89,1.72.31,2,.91,3.85-1.91,4.35l-1.42-.53-.13.49c3.43.41,6.81,2.14,10.26,2.55-2.13,5.53-25.34-7.09-30.49-8.45.75-3.66,1-7.41,1.51-11.11l-1.52-.65c-7.41,3.63-2,10.35,4.52,13.51-.41.74-5-2.5-5.39-1.76A.84.84,0,0,0,482.18,302Z"/><path class="cls-2" d="M579,168.89H568.11c-.4-13.79,4.34-5.27,4.69-13.27-4.1-5.46,3.93-13.94,4.35-10.36.7,6,4.86,10.34,14.26,15.18C589.25,160.32,579.55,159.86,579,168.89Z"/><path class="cls-3" d="M553.35,145.11a1.19,1.19,0,0,0-.51-.2c-5.69-13.43-.65-24.39,14-26.82-.1.35-.14,1-.3,1-7.89,1.75-4.29,9.88-3.92,15.26.58,9.36-4.38,7.35,5,12.87l-1,.91C562.34,146.68,557.81,146,553.35,145.11Z"/><path class="cls-4" d="M570.06,118.33l.89,2.23c-.34.09-1.87-1.4-2.22-1.32-.21-.16-.19-.77-.4-.93-1.3-13-.37-26.21-.68-39.3.46.82,1.32,1.64,1.33,2.48C569.61,93.73,568.21,106.23,570.06,118.33Z"/><path class="cls-5" d="M567.65,79c.2,12.48-.11,27.55.68,40-.38-1-2.23.5-2.24-.47C566.54,107.1,565.77,90.24,567.65,79Z"/><path class="cls-6" d="M779.22,330.13c.3-3.61.43-7.25.95-10.83.77-5.29.6-5.7-4.43-6.68-16.54-10.75-10.14-40.67-5.59-56.75l6.84-5.2c12.32,3.88,24.06,9.56,36,14.5,12.22,4.79,21.54,9.53,28.17,22-1-5.52-1.41-9.07-3.1-13.83,3,3.24,6.24,6.22,7.69,10.51-4.56,13.14-.57,27.3-2.33,41.13l-2.55-2.79q-3.61,6-7.19,12.06c-14.37-.66-27.93-10.36-42.17-11.56C787.2,324.74,783.28,327.59,779.22,330.13Zm30-16.25a6.93,6.93,0,0,0,11.24,2.21c6.66-4.41-5-24.87-11.72-14.6C805.62,305.72,806.54,309.84,809.2,313.88Zm-11-14.75c-1.32-2.57-2.18-5.59-4.11-7.55-3.49-3.13-8.78-2.37-9.4,3.14C782.33,304.77,796.19,313.61,798.16,299.13Z"/><path class="cls-6" d="M597.27,165.22c6.58,6.19,11.65,14.8,19.72,19,7,12.91,10.37,17.36,9.64,32.39-1.59,8.66-51.83,11.7-61,11.69,2.39-8.84,4.54-25.26,17.12-24.76,7.44,0,2.38-7.45,9.31-9,10.67-4.16,10.44-10,21.27-1.41.4-.25.8-.5,1.19-.76-1.12-8.72-8.93-14.2-14-20.8-5.43-7.41-15.56-2.46-22.94-2.71,2.8-6.76,1.73-13.1,13.34-8.65C592.93,160.9,595.77,163.58,597.27,165.22Z"/><path class="cls-2" d="M628.14,228.31c.44,16.73-2.35,37.53.7,53.92l-1.65.4,1.75,2.78c-1.63,3.3-1.32,6.85-1.29,10.46l-3.57-.67c-.48-.84-1-1.67-1.43-2.52a.41.41,0,0,0,0-.65c-.1-19.76-.93-44.71-.93-64.48C623.92,227.31,626,228.58,628.14,228.31Z"/><path class="cls-1" d="M838.05,273.32c1.69,4.76,2.11,8.31,3.1,13.83-6.63-12.45-15.95-17.19-28.17-22-11.93-4.95-23.67-10.63-36-14.51,2.3-.26,5-1.39,6.86-.65C801.81,257.87,821.32,263.13,838.05,273.32Z"/><path class="cls-2" d="M833.67,334.23q3.58-6,7.19-12.06l2.55,2.79c1.76-13.83-2.23-28,2.33-41.13-2.15,13.57,6.53,50.08-12.32,51.53Z"/><path class="cls-1" d="M627.09,284.58c-.58-.92-1.15-2.21-1.73-3.13,7.26-.31,16,6.25,23,8.26,5.76,1.35,6.56,6.08,6.2,11.25l-3.28-.74-1.53-6.81C642.8,290.74,634,287.25,627.09,284.58Z"/><path class="cls-1" d="M628.65,231.75l-2.68.42a2.52,2.52,0,0,1-1-.06l-.16,0a2.49,2.49,0,0,1-1.87-1.68l-.06-.2a2.45,2.45,0,0,1,.22-2,56.91,56.91,0,0,0,4.56-9.12,2.44,2.44,0,0,1,3.2-1.6c5.38,2.23,4.39,11.63-1.61,14.1A2.26,2.26,0,0,1,628.65,231.75Z"/><path class="cls-7" d="M634.11,221.45c-1.6-3.44-4.51-4.07-7.75-4.9l.35-2.49,2.07.08a4.17,4.17,0,0,1,3.17,1.54C633.08,217.16,636.7,218.35,634.11,221.45Z"/><path class="cls-6" d="M404.26,336.94c-8.5,4.19-26.16-12.71-32-18.93-18-8.43-54.59,15.11-70-2.15-4.41-9.42-1.94-21.21-2.25-31.25,0-12.4,9.46-19.55,20-24,25.64-.82,51.54-5.66,77.24-7.62,5.73-.32,12.21,5.38,12.72,11.08.43,12.52,3.19,25.41.13,37.73l0-.08c-.86,1-5.22,6-18.94,9l-.73-.81C390.89,321,398.6,328.16,404.26,336.94Z"/><path class="cls-3" d="M546.73,162.11c1-1.27,7.89-6.77,8.26-13.1.8-13.71,26.25-14.52,18,6.61-.07,2-.11,4-2.76,4.57-2,2.08-.77,5.72-1.33,8.7,3.21,0,7.2,0,10.93,0-11.81,3.06-5.7,7.17-7.23,15.86-3.13,12.54-11.71,22.25-15.19,34.45-3.93,13.13,15.68,6.44,22.88,7.93-3.52,3-6.44.44-10.2,4.34,2,2.34,3.86,4.25,7.19,3.68l0,.17L556,236.68l-.95,4.29c-3.55-3.25-8.44-2.37-12.85-3,.75-5.48-8.24-.19-11.77-8.41-2.6-5.56-10.63-2.1-13.46-6.56,4.29-.87,6.12-2,5.25-6.35-1.55-6.53-1.32-13.25-1-19.92.23-4.38,4.77-7.8,3.06-12.73,1.13-3.09,5.24-4.86,6.64-7.87,1.26-2.15,5.47-3.25,3.15-7l2-1.66"/><path class="cls-2" d="M555.09,241l.95-4.29,21.16-1.35,0-.17c-3.33.57-6.34-1.72-8.33-4.06,12.12-9.11,49.35-3.25,57.71-14.48,1.29-1.74,3.08-.22,5,1.3.6,1.85-2.75,4.72-3.94,5.63-9.45-.2-8.57.3-15.6,5.52-5.08,1.31-10.25,2.24-15.39,3.32v.71c.78.2.28,1.08,1.07,1.27-6.23,2.82-12.44,1.2-19.16,2.45l.05,1.05h10.43c-8.58,1.41-17.33.72-26,1.38-3.69,20.24-.64,42.38-1.24,63.31,11.49-1,22.76,1.82,34.41-2.85.27,5.12.5,9.51.73,13.89-12.17,1.52-24.31.34-36.5-.33l0-1.15,2.42-1.61c-5.78-1-5.76-1-4.63-5.89.24-3.31-3.14-1.46-3.58.85-1.14-3.57-1.15-3.51-4.4-3.65s-6.45-.35-9.65-.68c-4.14-.43-4.46-.14-4.59,4,2.54,12.7-12.86,5.12-19.74,5.19a2.66,2.66,0,0,0-.79-.08c-2.49-.06-5.29-.33-7.46-1.59,1.1-4.38.59-9,.87-13.45l-2.68-.64c-.33-3.11-.65-6.22-1-9.32l.05,0c.33-17,.67-33.94.48-50.91.44-.61.87-1.22,1.31-1.82,3-.62,2.83,1.28,2.83,3.31,0,17.23.1,34.46.1,51.69,0,2.14.14,3.82,3.16,3.14.75-18.13,0-36.4.31-54.57.06-4.31-2.62-7.12-5.76-9.53l.08.06-1.12-.93c0-.22-.09-.33-.31-.33-1.22-1.41-2.91-2.76-3.94-3.79l4.05-5.86c-2.72-20,13.68-34.75,27.44-46.55,2.32,3.77-1.89,4.87-3.15,7-1.4,3-5.51,4.78-6.64,7.87,1.71,4.93-2.83,8.35-3.06,12.73-.27,6.67-.5,13.39,1,19.92.88,4.34-1,5.5-5.25,6.35,2.84,4.46,10.86,1,13.46,6.56,3.57,8.27,12.47,2.88,11.77,8.41-7.69.59-13.68-.67-21.22-3.47v17.89L519,253.68c-.41-6.78-.81-13.47-1.21-20.16l-1.5.09c-1.76,19.15-.85,38.33-1.18,57.5l1.8.41c3.15-5.9-.26-12.9,2.22-18.94l.83.18c1.63,5.24,1.33,11,.81,16.35-.48,3.08,1.06,3.67,3.17,4.2,2.78.17,6.47.87,8.38,3,1,3.48,3.12,2.7,5.4,1.7,4.11-.18,8.06.92,12.15.9,5.28.14,5.27.14,5.27-5.13Zm-25.34,59.45c.06-4-6.67-6.51-11.86-4.39Z"/><path class="cls-8" d="M509.16,227.53c2.65,2.21,4.47,4.77,4.46,8.47-.3,18.17.44,36.44-.31,54.57-3,.68-3.16-1-3.16-3.14,0-17.23-.09-34.46-.1-51.69,0-2,.13-3.93-2.83-3.31-.07-.15-.16-.29-.24-.43C510.45,231.85,508.67,229.14,509.16,227.53Z"/><path class="cls-8" d="M410.17,301.79c3.06-12.32.3-25.21-.13-37.73-.51-5.7-7-11.4-12.72-11.08-25.7,2-51.6,6.8-77.24,7.62,14.57-2.05,29.71-3.58,44.39-6.08,12.3-.18,32.85-8.46,42.57.84C414.73,263.26,415.3,292.7,410.17,301.79Z"/><path class="cls-3" d="M320.08,260.6c-12.2,5.68-20.23,13.66-20.06,25.3-.19,10.49-.72,20.52,2.73,30.44-9.52-6.2-4.26-26.89-5.75-37.45C300.2,269.5,310.43,262.59,320.08,260.6Z"/><path class="cls-1" d="M509.16,227.53c-.49,1.61,1.29,4.32-2.18,4.47-2.49-1.27-5.73-2-7.24-4s-1.1-5.19-1.53-7.82l8.41-4.58-4.05,5.85,3.62,3.38c0,.48.67.3.63.74l1.12.93-.08-.06Z"/><path class="cls-6" d="M622.63,382.5c-10.18,5.72-2.42,18.88-8.62,26.4-11.61,2.65-23.27,5-35,6.8-1-6.23,42.53-1.31,17.07-23.06,9.21-4.84,13.51-18,20.94-25.65,8.12-8.91,19.12-16.54,22.62-28.58l-24.6,0c12.73-4.65,34.09,1.27,43.3-13.37-2.13,11.17,1.69,27.36-11.1,32.89-12.25,4.92-20,17.81-30.78,25.4l.38.76C618.93,383.68,620.49,382.93,622.63,382.5Z"/><path class="cls-8" d="M658.29,325.07c-8,12.37-22.64,11.43-35.66,12.14l12-3.79-2.1-.91c3.29-4.14,6.61-6.13,11-8.77-2,.23-5.42,1-7.2,1.24-.46-.5.73-1.58.26-2.08,17.37-2.74,15.82-6.13,14.23-21.89.13-.27.26-.53.38-.79l3.28.74c.17,4.45,0,8.92-.06,13.37L652.14,317C655.65,319.38,659.37,320.46,658.29,325.07Z"/><path class="cls-9" d="M620.15,380.29c9.1-7.09,16.18-18.24,27-22.33-.06.31-.13.62-.2.93a2.33,2.33,0,0,1-1.32,1.69,3.81,3.81,0,0,0-1.54,1.17l0-.05C636.07,367.09,629.23,375.59,620.15,380.29Z"/><path class="cls-8" d="M620.15,380.29c3.9-2.65,7-5.33,10.71-8.27,4.16-2.91,8.31-8.58,13.27-10.27-8,7.94-15.21,21.1-27.34,22.37l-.38-.76Z"/><path class="cls-2" d="M779.22,330.13c5.91-3,10.88-9.88,18-6.48a7.65,7.65,0,0,1-5.84,6C788.45,329.71,779,335.75,779.22,330.13Z"/><path class="cls-10" d="M657.59,320.91c-1.66-1.06-3.31-2.51-5.45-3.89.75-.75.68-2.29,2.35-2.69C655.05,316.62,657,318.64,657.59,320.91Z"/><path class="cls-10" d="M654.54,313.19l.09-10.77Z"/><path class="cls-6" d="M506.18,380.5c-2.59-7.69-19-33.14-32.2-36l-.57-4.64a61.64,61.64,0,0,1,33.06,23.36c2.76,4.51,14.84,15.31,12,20-7.86.78-2.12,17.79-3.63,23.55-.16,3.09.79,3.82,3.4,3.74,1.28,24.57-.94,49.9.08,74.83,1.76,5,.93,9.87-.21,15l-7.52.38-10.15-5.49c3.65-22.71,4-46.33,5.91-69.4-.41-6.82,3.38-14.73-.75-20.69C506.57,400.38,503.17,381.32,506.18,380.5Z"/><path class="cls-2" d="M518.23,410.54c-2.61.08-3.56-.65-3.4-3.74,1.51-5.73-4.24-22.79,3.62-23.55,2.83-4.79-9.21-15.45-12-20a61.7,61.7,0,0,0-33.07-23.36c0-9.09-2.9-19.19,3.35-26.9,3.12-.52,1.39-4.42,2.5-6.57,1.11-3.57-.52-5-3.72-5.53.45-1.37.89-2.73,1.33-4.09,1.77,1.74,3.75,3.73,5.52,5.48.06,4.7-1.79,9.07-2.43,13.73,9.19,6.24,20.37,7.41,30.81,10.51-11,2.55-13.11,5.07-24.85,1.22l-.38,1,2.39,2.93c-3.09,3.35.39,5.43,1.72,8.4.8,7,9.1,5.48,13.86,8.12,5.64,2.19,8.06,7.7,11.8,11.83,6.47,7.78,13.84,15.15,18.42,24.22-2.05.9-2.45,4.07-5.45,3.76C520.32,386.7,525.54,409.24,518.23,410.54Z"/><path class="cls-4" d="M477.57,351.35l1.56,1.39Z"/><path class="cls-4" d="M395.77,325.25c-4.32-4.16-5-10-5.23-15.31,3.1,2.23.84,9.56,6.2,14.95C396.52,325,396,325.22,395.77,325.25Z"/><path class="cls-11" d="M499.52,283.9c-5.72,1.74-12.89,4.3-18.61,6C482.92,286.79,496.59,282.09,499.52,283.9Z"/><path class="cls-12" d="M395.77,325.25c.23,0,.75-.3,1-.36,1.19,2.57,9.94,10.39,7.52,12.05C401.52,333,398.5,329.22,395.77,325.25Z"/><path class="cls-6" d="M650.59,656.49c-18.43,10.49-39.94,10-60.42,12,3.4-5.24-.28-4.62.25-8.14,3.82-3,1.56-7.13,1.92-10.72,2-12.5-2.75-24.43-2.08-36.91-1-16.91,1-34.43-.57-51.18-2.62-3.37-1.72-7.18-1.68-10.84.46-7.89.79-15.78.72-23.69.21-3.58,1.69-6.92-1.34-9.75.76-.15.89-2,.87-2.17-5.59,0-8-.34-13.57-.34,11.47-5.53,26.73-4,39.21-6.48-.17,2.38-4.8,2.51-6.52,3.6,6.58.57,13.79,2.43,15.72-6.81l1.69-1.38h0l.77-.14c2.11,48.33,11.92,96.49,27.59,142.42C656.86,650.9,652.71,652.55,650.59,656.49Z"/><path class="cls-13" d="M577.11,144.68c.67,2.77-1.18,2.39-2.15,3.08a2.31,2.31,0,0,1-1,.46c-2.73.42-7.82,1.77-10.32,1.21-.36-1.32,2-.92,3.48-1.77C569.19,147,574.44,144.68,577.11,144.68Z"/><path class="cls-14" d="M567.13,147.66c-2.35,3.67-7.94.53-11.49.26L555,149c-.29-1.25-.59-2.5-.89-3.75C558.32,146.11,563,146.28,567.13,147.66Z"/><path class="cls-3" d="M500.43,495.22c5.72,3.2,14.79,3.22,21.06,5.2-.5,3.78,13,4.8,18.78,5.07,8.62,3.38,18.32,6.87,27.38,7.21-2.39,1.47-4.74,3-7.25,4.26,3.52,2.61,8.42,1.15,12.29,1.48.17,2.1.31,3.81.38,4.63-6.17,8-3,18.32-4.06,27.63-.49,7.42-1.83,14.81-2,22.23-.46,19.94.35,40-.54,59.86.63,11.76,3.74,24.41-.37,35.7-11.27,0-22.55.31-33.81-.07-.53-.46-11.19-4-16.27-3.09-.48.08-4.08-3.66-7.34-3.45.92-5.4-18.62,3.59-20.07-.09-1.79-4.81-17.12,1.4-22.33-.33-8.09-1.81,3.51-10-2.55-14.44,2.3-5.07,2-3,3.41-8,.6,2.45,6.16-.6,6.68,1.51,3.66-2.12,12.61-31.73,13.87-36,.3,1.18.6,2.37,1,3.89l2.81-5.63c1.84,1.71,1.23,4.39,2.88,5.52,3.85,1.65,5.48-12.35,8.58-19.63,3.72-8.75,22.71-70.9,15.32-77.23,2.1-.28,3.64-.61,5.41-.85,0-.4-.13-.67-.13-1.07-4.3-1-8.21-2.06-12.5-3.09-2.61-2.52-6.31-4-9.34-6.05Q501.08,497.81,500.43,495.22Z"/><path class="cls-2" d="M566.13,668.49c4.11-11.28,1-24,.37-35.7.89-19.9.08-39.92.54-59.86.14-7.42,1.48-14.81,2-22.23,1-9.32-2.11-19.57,4.06-27.63-.07-.82-.21-2.53-.38-4.63-3.87-.33-8.77,1.13-12.29-1.48,2.51-1.26,7.32-5.65,9.71-7.11,3.49,0,10.2,1.52,13.67,1.85-1.14.67-1.82,1-1.67,2,5.54,0,1.09.88,6.69.88,0,.18-.65,2.47-1.41,2.62,3,2.86,1.55,6.14,1.34,9.75.07,7.91-.26,15.8-.72,23.69,0,3.66-.94,7.47,1.68,10.84,1.53,16.75-.39,34.27.57,51.18-.67,12.48,4,24.41,2.08,36.91-.36,3.59,1.9,7.7-1.92,10.72-.56,3.44,3.16,2.93-.25,8.14C582.19,668.91,574.12,668.83,566.13,668.49Z"/><path class="cls-1" d="M809.2,313.88c-6.15-5.75,1.15-21.5,8.56-12.72C824.45,307.15,817.34,320.5,809.2,313.88Z"/><path class="cls-1" d="M798.16,299.13c-2,14.48-15.83,5.64-13.51-4.42.62-5.5,5.91-6.27,9.4-3.13C796,293.54,796.84,296.56,798.16,299.13Z"/><path class="cls-2" d="M809.2,313.88c2.47,2.71,5.19,1.85,7.89.5,3.82-2.05,3.4-6.64,2.89-10.24C827.74,314.46,815.31,324,809.2,313.88Z"/><path class="cls-2" d="M568.56,227.35c-5.94.7-14.46,0-11.17-8.14,2-5.63,1.65-12.21,6.4-16.53,4.64-9.66,9.17-19.07,7.66-29.89,5.43-4.82,11.7-5.73,21.42-6.33,5.27.72,23,19.8,22.6,25.44-.4.26-1.74,1-2.14,1.26-10.86-8.64-10.57-2.75-21.27,1.4-6.94,1.55-1.86,9-9.31,9C570.17,203.06,571,218.5,568.56,227.35Z"/><path class="cls-1" d="M621.73,229.6c0,19.77.84,42.67.94,62.43.19,4.52.3,13.69.62,18.59-2.38-3.51-1.85-13.05-3-15.42-9.08-18.86.61-42.51-2.46-62.94C619.07,231.91,620.48,229.86,621.73,229.6Z"/><path class="cls-1" d="M627.65,295.87l19,7.25c.69,1.09,2.07,2.25-.32,3-5.75-5.08-14.52-5.71-21.49-8.91l-.78-2Z"/><path class="cls-3" d="M624.08,295.2c1.72,4.61,1.24,9.88,1.81,14.75-.7.22-1.87.56-2.65.82-.3-5.93-1.4-12.93-.57-18.74C623,292.64,623.73,294.59,624.08,295.2Z"/><path class="cls-4" d="M622.7,290.39l0-5.81Z"/><path class="cls-4" d="M622.65,282.9l-.09-1.45Z"/><path class="cls-6" d="M623.07,229.11a2.34,2.34,0,0,1-.62.92c-13.74,11.08-4.12.65-6.65,18.5-2,13.91,1.32,30.25.86,44.49-.2,6.25,1.38,11.38,2.32,17.25l-1.19,1.51-20.73,1.82c-.23-4.38-.46-8.77-.73-13.89-11.65,4.67-22.92,1.83-34.41,2.85-.09-1.76-.15-3.08-.22-4.39,9.83,1.52,19.83-.12,29.75,0,3.57-.05,4.72-1.59,4.69-5.06-.13-14.59,0-29.17-.06-43.76-1-4.65,2.92-11.27-4.63-10.15q-12.71,0-25.4-.08c7.7-.59,15.44,0,23.08-1.28H578.7c0-.35.09-1.34.07-1.69,6-.65,12.09-.86,18.13-1.51,2.74,20.22-.39,41.1,1.16,61.41l1.38-.09.07-19c.42-.08.58,0,1-.09.35.92.38,2.47.92,3.87,1.7-14.59.16-29.8.82-44.62,0-3.57-4.58-.71-6.7-1.75,0-.24,1.19-1.8,1.18-2,5.14-1.08,10.31-2,15.39-3.32,6.3-4.66,4.08-6.27,15.6-5.52C628.48,225.68,623.81,227.34,623.07,229.11Zm-20.15,36.64h-.1c.78,9.06-1.67,19.48,1.15,28,2.11,1.45,8.89-2.36,8.9-5,0-16.59,0-33.18-.11-49.78a3,3,0,0,0-.89-2.23C597.76,230.7,604.3,258.35,602.92,265.75Zm6,42.9c7.38-2.15,3.54-7.88,5.67-13.68-3.71-1.74-7.38,1.28-12.28,2.38C606.87,300.19,607.47,303.86,608.89,308.65Z"/><path class="cls-9" d="M536.18,237.35c6.22.3,13.7-.37,18.91,3.62v52.8c0,5.27,0,5.27-5.27,5.13-4.09,0-8.4-.92-12.51-.74C533.81,278.54,535.81,257.18,536.18,237.35Z"/><path class="cls-3" d="M481,301.28c7.42.79,16,6.86,23.54,8.85-.55,4-2.45,8-1.5,12.09l7.49,1.3c3.25-4.57.38-8.54-2.08-12.32,1.84,0,3.65.49,4.77-1.13.66,0,1.46.13,2.13.15,3.41,4.57,9.79,3.59,14.89,4.09,9.37,0,18.7,3,28,.43-8.08-.42-16.18-.61-24.22-1.67,0-.22-2.77-.5-2.82-.72,5.76-2.67.8-13.2,9.54-11.21,3.2.33,6.43.54,9.65.68s3.26.08,4.4,3.65c.44-2.31,3.82-4.16,3.58-.85-1.13,4.93-1.15,4.93,4.63,5.89l-2.42,1.61.31,1.17c7.86.42,19,.6,26.77,1-3.73.34-11,.94-14.69,1.28l.11,1.16c8.42,0,27.19-1.28,35.61-1.29C599,318.91,587.56,317,584.76,329c-23-.15-46-.32-68.85-3.21l-.09,1.3c12.77,1.05,25.68,1.28,38.17,3.53l-2.24,3c11.91,5.65,26,2.7,38.83,4.5-1.28.39-4.52.49-5.08,1.33-.08,3.33,2.41,6.17,3.38,9.22,2.92,9.45-1.16,18.57-9.83,23.52-4.54,2.59-5.26,8-7.28,12.34,6.52,14.28-4.39,16.37,3.33,21l-4.48,1c5.13,10.52-5.5,1.17-3.83,10.27-16,.15-33-.45-48.32-5.06l-.24-1.21c7.31-1.3,2.09-23.83,10-22.52,3,.31,3.4-2.86,5.45-3.76-4.58-9.07-12-16.45-18.42-24.22-3.74-4.13-6.16-9.64-11.8-11.83-4.77-2.64-13.06-1.11-13.86-8.12-1.32-3-4.82-5.07-1.72-8.4l-2.39-2.93c.34-.49-.16-.75.19-1.24C497,331.25,501.16,329,512,326c-5.42-3.23-12.8-3.71-18.83-5.75,2-.22,4.32-.16,6.32-.38.67-3.15,1.33-6.3,2-9.48-6.91-2.32-13.25-4.39-19.4-6.45C482,303.31,481.08,301.93,481,301.28Z"/><path class="cls-9" d="M566.05,239.15q12.71,0,25.4.08c7.58-1,3.59,5.37,4.63,10.15,0,14.59-.07,29.17.06,43.76,0,3.47-1.12,5-4.69,5.06-9.92-.15-19.92,1.49-29.75,0,1.15-19.4-2.37-40.2,1.46-58.92l.34.06.29-.17Z"/><path class="cls-9" d="M521,252.35V234.46c4,1.26,7.46,1.84,10.76,2.89-1.64,18.4-.86,37.42,0,55.93-4.11-.12-11.79,2.28-11.27-4C521.3,277.1,520.74,264.57,521,252.35Z"/><path class="cls-6" d="M525.76,293.63l6-.35c-.86-18.5-1.64-37.53,0-55.93,1.56.05,2.84-.06,4.4,0,.61,20.06-3.08,41,1.49,60.65C531.23,300.88,533.4,295.6,525.76,293.63Z"/><path class="cls-10" d="M599.09,233.68c1.71,0,3.18,0,3.16,2.5-.66,14.82.88,30-.82,44.62-.54-1.4-.89-2.32-1.24-3.24l-.75,0V296l-1.38.09c-1.55-20.31,1.44-41.81-1.29-62C597.54,233.66,598.32,234.07,599.09,233.68Z"/><path class="cls-6" d="M521,252.35c0,8.2.07,17.93.06,26.12-.36-1.39-.81-4.31-1.17-5.71l-.83-.18c-2.48,6,.93,13-2.22,18.94l-1.8-.41c.33-19.17-.58-38.35,1.18-57.5l1.5-.09c.4,6.69.8,13.38,1.21,20.16Z"/><path class="cls-12" d="M508.28,308.82l-2.82-.72v-.4c2.82-.5,2.22-2.33,1.91-4.35-5.62.53-11.23,3.78-16.89-1.72,6.91-2.05,12.82-2.74,18.56-6.46C508.76,299.65,509.38,304.44,508.28,308.82Z"/><path class="cls-12" d="M598.35,316.74l-25.26,0L573,315.6c14.92-1.41,30-2.48,45-3.89-.12,2.31,3.09,1,4.64,1.45a5.78,5.78,0,0,0-.24.7Z"/><path class="cls-12" d="M524.67,314.27c-4.45-.88-7,.21-9.87-4.06,0,0,1.68-.06,2.66,0,8.86.61,15.7,3,24.56,3.73L540.74,315C536.47,314.78,529,314.22,524.67,314.27Z"/><path class="cls-3" d="M529.75,300.42,517.89,296C523.08,293.91,529.81,296.38,529.75,300.42Z"/><path class="cls-8" d="M509.14,227.52l-1.28-1.05Z"/><path class="cls-8" d="M507.94,226.53l-1.12-.93Z"/><path class="cls-8" d="M506.51,225.27a.51.51,0,0,1-.32-.41Z"/><path class="cls-6" d="M563.79,239.14l-.29.17-.34-.06Z"/><path class="cls-1" d="M614,408.9c.86-7.45,3,3.23,4,5.43s6.78,70.8,7.37,88.38l-.58.94v0c-1.2-.37-3.13-1.41-3.48-1-7.17,6-21.68,6-30.85,6.83l-5.29-3.85c6.91-1.11,4-7.53,7.22-10.3.84-26.37-4.88-52.7-.86-79l4.85-1.45L595.21,413Z"/><path class="cls-2" d="M566.33,416.41c-1.66-9.1,9.42.65,4.29-9.87l4.48-1c-4.23-2.16-3.72-5.41-2.64-8.47,2.42-5.67.23-7.71-.69-12.56,2-4.36,2.74-9.75,7.28-12.34,8.67-4.95,12.75-14.07,9.83-23.52-1-3.05-3.46-5.9-3.38-9.22.56-.82,3.79-.93,5.08-1.33-12.83-1.8-26.91,1.15-38.83-4.5l1.71-2.31c-7.1-2.75-14.82-.74-21.88-3.41a4.37,4.37,0,0,0-.12-.49c20.47-.22,33.18,1.45,53.34,0l8.35.61L606,329.85c.1,1.79.16,2.83.22,3.89l-4.75.72,3.91,3L597,338.55l.12,1.16c14-1.67,28.53-1.3,42.44-1.3-3.5,12-14.5,19.67-22.62,28.57-7.45,7.67-11.69,20.78-20.94,25.66,25.45,21.76-18,16.81-17.08,23.06-3.64.89-4.89,1.64-8.61,2.07C569.84,417.51,567.09,417.77,566.33,416.41Z"/><path class="cls-15" d="M575.83,416.35c6.42-1.35,12.93-2.22,19.38-3.35l1.17,1.86-4.85,1.45c-4,26.29,1.7,52.61.86,79-3.18,2.77-.31,9.19-7.22,10.3l5.28,3.85a.44.44,0,0,0-.34.28c-3.67,1.27-7.48,1.26-11.32,1.37-3.22-1.9-6.36-1.91-6-6.68,0-4.66-.48-9.31-.61-14C572.9,475,567.65,426.26,575.83,416.35Z"/><path class="cls-12" d="M614.08,338.49c-.67,0-7.47.49-8.14.46,2.14-1.81,12.36-2.65,14.36-3.18-1.64-3.67-1.73-6.26-1.47-10l-.69-1c.12-3.29.24-6.66.35-9.95,1.08-.17,2.16-.25,3.24-.43.69,3.74-.61,8.27,2.18,11.24l12.75-2.8,1.41,1.48a15.83,15.83,0,0,0-4.29,2.24l2.87,1.47-4.09,4.42,2.1.91C628.23,335.24,621.08,338.45,614.08,338.49Z"/><path class="cls-2" d="M636.66,322.9l-12.75,2.8.84-12.73c7.17-2.38,14.25-5.05,21.59-6.85,2.4-.75,1-1.91.33-3l4.22-2.11C652.49,316.81,654,320.16,636.66,322.9Zm-5.8-10.06,0,1.37c6,.4,11.83-1.31,17.59-2.67.68-.18.85-2.27,1.25-3.48C646.35,306.18,636.52,312.57,630.86,312.84Z"/><path class="cls-4" d="M635.89,329c-.95-.49-1.84-1.79-2.8-2.28,2.88-2.36,7.42-2.61,11.09-3C641.76,325.26,638.15,327.58,635.89,329Z"/><path class="cls-11" d="M515.2,409.46c3.78.85,6.47,2.17,8.5,2.71-4.91,29.37-1.18,58.84-2.21,88.25h0c-1.47,0-9.18-2.1-10.65-2.13C512.36,468.87,514.39,438.9,515.2,409.46Z"/><path class="cls-6" d="M499.52,319.89c-6.86,1.72-16.54-2.8-19.56-3.89.78-3.66,1.57-9.38,2.35-12C480.12,311.16,496.45,311.67,499.52,319.89Z"/><path class="cls-4" d="M480,316c10.41,4.1,24.21,5.27,32.07,10-.42.16-1.13.36-1.55.52C500,323.44,489.15,322.24,480,316Z"/><path class="cls-6" d="M503.07,322.22a17.19,17.19,0,0,1-.42-2.68,68.82,68.82,0,0,0,5.83-8.34l.82.34.6,1.37C506.81,314.81,513.21,318.4,503.07,322.22Z"/><path class="cls-12" d="M508.48,311.2a68.82,68.82,0,0,1-5.83,8.34c.16-3.25,1.28-6.27,1.92-9.41Z"/><path class="cls-12" d="M505.46,308.1l-1.76-.24c0-.16.29-.53.34-.69l1.42.53Z"/><path class="cls-16" d="M575.83,416.35c-8.18,9.83-2,58.54-2.76,73.92,1.49,5.77-3.49,18.47,4.16,19.83a27.06,27.06,0,0,1,4.4,2.14c-3.88,1.2-8.82-1.78-12.5-2.77-3-4.13-3-8.56-2.21-13.38-.25-7.77-.61-15.54-.72-23.31.26-18.54-1.24-37.22,1.63-55.6Z"/><path class="cls-8" d="M580.28,512.24l-1.5-1.15c9.14-.73,2.32.18,11.33-1.37,4.95-1.6,27.14-2.64,31.2-7.11.35-.39,3,.52,4.24.9C612.47,511.46,595,509.61,580.28,512.24Z"/><path class="cls-12" d="M612.8,508.62l10.3-3.6c-1.93,9.24-9.14,7.38-15.72,6.81C609.1,510.74,612.62,511,612.8,508.62Z"/><path class="cls-17" d="M635.14,580.58l1.53,7.27Z"/><path class="cls-8" d="M625.36,502.71c.06.26.12.53.19.8l-.77.14Z"/><path class="cls-2" d="M511.92,501.68c4.3,1,5.87,2.79,10.17,3.81,0,.39,1.87,4.81,1.86,5.2-1.77.24-2.52,1.27-4.62,1.55,7.33,21-8.53,56.09-12,78.33-.67,6.74-4.35,10.93-8.46,15.57-1.06,2-2.62,3-4.45,2.17-1.65-1.15-9.51,9.72-9.81,8.54-1.25,4.25-7.08,21.55-10.74,23.67-.52-2.11-6.07.94-6.68-1.51,11.44-23.43,27.4-81.21,34.38-106.17,4.38-7.28-1.38-17.74,4-23.89l-1.23-2.38C506.55,506.4,509.66,501.69,511.92,501.68Z"/><path class="cls-5" d="M570.11,509.85l.17.06a1.45,1.45,0,0,1-.55,2.8c-16-.48-31.46-6.27-47.3-9a1.45,1.45,0,0,1-1.19-1.43c0-.6,0-1.21,0-1.82h0a29.61,29.61,0,0,0,8.51-.19c.76-.09.63-6.5.59-7.26-1.36-24.23-4.7-45.55-2.26-68.45,1.62-15.21,34.83-6.68,35-8.17-.46,4.12-22.76,6-18,24.36,0,.11-.14,1.75-.13,1.86.6,19.87-3.19,39,2.12,58.52a1.45,1.45,0,0,0,1.09,1l5.89,1.3.14.14c-.34,2.12.43,2.79,1.61,2.92Z"/><path class="cls-6" d="M509.66,502.74c-1.33,1-2.74,2.53-4,3.32a1.52,1.52,0,0,0-.58,2l0,0a1.51,1.51,0,0,1-.09,1.55c-4.38,6.17.7,16-3.34,23a1.54,1.54,0,0,0-.15.35c-4,15.76-24.59,86.12-30.62,105.06a1.54,1.54,0,0,1-1,1c-1,.35-3.53,3.79-2.74,0,7.08-34.33,30.38-113.24,33.58-139.49a1.53,1.53,0,0,1,2.07-1.22c2,.76,4.43,1.09,6.46,1.83A1.51,1.51,0,0,1,509.66,502.74Z"/><path class="cls-2" d="M510.84,506.07c-.53-.39-1.07-.77-1.61-1.15C509.77,505.3,510.31,505.68,510.84,506.07Z"/><path class="cls-4" d="M615.8,248.53c0-4-1.21-8.65-1.24-12.68,1-.73,3-2,4-2.75,2,17.23-1.35,35.94-.27,53.25C614,274.41,619.89,260.39,615.8,248.53Z"/><path class="cls-12" d="M615.68,246.28c3.19,10.2.6,23.93,1.56,34.59a36.18,36.18,0,0,1,1.54,11.46c-.39,3.44,2.61,19.37-1,19.45-.91-5.82-2-15.56-2.08-19.75C615.32,277.78,614.44,257.09,615.68,246.28Z"/><path class="cls-4" d="M619,310.17c1.66-2.45-1.49-18.25-.25-22.69,3.94,7.44,2.61,15.17,4.57,23.14,5.41-1.06,11.11-4.54,16.54-2.75-5,1-19.66,9.43-22.48,4.72C617.74,312.05,618.57,310.71,619,310.17Z"/><path class="cls-10" d="M639.83,307.87c-4.73-1.84-10.43,1.62-15.19,2.31-.2-4.23-.12-9.18-.32-13.41,7,3.19,16.28,4.27,22,9.35Z"/><path class="cls-9" d="M602.92,265.75c1.39-7.41-5.17-35,9-29.07a3,3,0,0,1,.89,2.23c.09,16.6.16,33.19.11,49.78,0,2.66-6.79,6.47-8.9,5-2.82-8.47-.37-18.89-1.15-27.95Z"/><path class="cls-2" d="M608.89,308.65c-1.42-4.79-2-8.46-6.61-11.3,4.9-1.1,8.57-4.12,12.28-2.38C612.43,300.77,616.27,306.5,608.89,308.65Z"/><path class="cls-2" d="M537.26,296.08c-2.25-7.9-4-42.85-1-56.77C535.37,243.38,535.67,267.31,537.26,296.08Z"/><path class="cls-11" d="M554.18,417.34c4.46.13,9.52-2,13.65-.16-2.87,18.38-1.37,37.06-1.63,55.6.11,7.77.47,15.54.72,23.31-.77,4.81,1.47,10.06,4.45,14.18-5.19-1.69-13.38-.35-17.36-4.42-2.51-13.71-2.59-29.85-2-43.81a125.3,125.3,0,0,1,3.41-42.21Z"/><path class="cls-7" d="M546.23,415.29c-7.06,1.06-17.3.58-17.53,10.48-.05,9.11-1,18.34.2,27.29,2.23,15.7-.09,31.43,2.2,47-3.29.38-6.55.91-9.85.35.74-29-2.57-59.68.94-88.65C530.23,412.78,538.19,414.28,546.23,415.29Z"/><path class="cls-2" d="M618.14,324.84l.69,1c-11.46.24-24.8,2.17-36.3,1.76,1.42-2.76,3.28-7.11,6.26-8.53,11-2.73,22.24-3.86,33.55-5.18-.16,1.91-8.2-.32-7.87,3.84C614.92,320.25,614,324,618.14,324.84Z"/><path class="cls-12" d="M499.52,319.89c-3.12-8.26-19.37-8.69-17.21-15.91l19.2,6.43C500.85,313.59,500.19,316.74,499.52,319.89Z"/><path class="cls-2" d="M503.07,322.22c10.16-3.84,3.73-7.41,6.83-9.31a8.18,8.18,0,0,1,.88,10.75C508.33,323.24,505.59,322.66,503.07,322.22Z"/><path class="cls-6" d="M539.78,315c.43-.35,1.22-.79,1.64-1.15,5.41.27,11.42.62,16.83.89C552.41,316.64,545.62,315.47,539.78,315Z"/><path class="cls-6" d="M533.87,327.4c0,.16-.17,1-.14,1.19-5.25-.28-12.66-1.23-17.91-1.51l.09-1.3C521.09,326.33,528.68,326.86,533.87,327.4Z"/><path class="cls-6" d="M527.92,314.32h0Z"/><path class="cls-3" d="M621.73,314.46a2.38,2.38,0,0,0,.85-1.3l2.17-.19-.84,12.73C621.12,322.73,622.42,318.2,621.73,314.46Z"/><path class="cls-6" d="M586.31,327.4c8.53-1.1,23.93-1.19,32.52-1.6-.25,3.71-.17,6.3,1.47,10a91.82,91.82,0,0,1-23.15,3.94l-.12-1.16,8.38-1.12-3.91-3,4.75-.72c-.06-1.06-.12-2.1-.22-3.89C601.78,329.24,590.62,328,586.31,327.4Z"/><path class="cls-6" d="M614.08,338.49l.91-.05Z"/><path class="cls-1" d="M590.11,509.72l-4.23,1.1Z"/><path class="cls-6" d="M618.14,324.84c-4.17-.82-3.22-4.59-3.67-7.15s2.15-2.63,4-2.8C618.37,318.18,618.26,321.55,618.14,324.84Z"/><path class="cls-12" d="M630.86,312.84c5.75-.28,15.4-6.65,18.88-4.78-.4,1.21-.57,3.3-1.25,3.48-5.76,1.36-11.62,3.07-17.59,2.67Z"/><path class="cls-7" d="M554.18,417.34l1.26,2.49c-3.58,13.93-4,28.09-2.8,42.28-.61,13.95-1,27.6,1.47,41.31l-6.74-1.49c-5.67-19.83-1.93-40.28-2.57-60.48-.45-4.88-4.68-11.53,1.06-14.73C548.48,418,542.87,421.06,554.18,417.34Z"/><path class="cls-2" d="M567.65,147.23c-9.39-5.53-4.42-3.5-5-12.87-.37-5.38-4-13.51,3.92-15.26.16,0,.2-.66.3-1l1.46.22c5.14,4.27,7.69,6.44,2.7,12.33-.56,4.94-2.12,10.66,1.87,15C571.14,146.15,569.46,147.15,567.65,147.23Z"/><path class="cls-6" d="M572.9,145.67c-4-4.37-2.69-10.1-2.12-15,4.2-5.69,2.17-7.5-2.45-12.33,0-.31.95.11,1.18,0l.55,0,8.19,7.93C580.78,131.38,582.13,147.41,572.9,145.67Z"/></g><g id="twitter"><path class="cls-18" d="M670.14,107.52c10.7,5.24,32.93-15.89,40.27-23.66,22.71-10.55,68.75,18.89,88.13-2.7,5.55-11.78,2.45-26.52,2.83-39.07,0-15.51-11.91-24.45-25.22-30-32.29-1-64.9-7.07-97.28-9.52-7.21-.4-15.38,6.72-16,13.85-.54,15.66-4,31.77-.17,47.17l-.05-.09c1.08,1.3,6.58,7.55,23.86,11.3l.91-1C687,87.62,677.26,96.54,670.14,107.52Z"/><path class="cls-19" d="M662.69,63.56c-3.85-15.39-.37-31.51.17-47.17.63-7.13,8.8-14.25,16-13.85,32.37,2.45,65,8.49,97.28,9.52-18.35-2.56-37.42-4.48-55.9-7.6-15.49-.23-41.38-10.58-53.62,1.06C657,15.39,656.24,52.21,662.69,63.56Z"/><path class="cls-20" d="M776.15,12.06c15.37,7.1,25.48,17.09,25.27,31.64.23,13.12.9,25.66-3.45,38.07,12-7.76,5.36-33.63,7.24-46.84C801.18,23.2,788.3,14.55,776.15,12.06Z"/><path class="cls-21" d="M680.83,92.91c5.43-5.2,6.25-12.51,6.58-19.14-3.9,2.78-1,12-7.81,18.69C679.88,92.53,680.54,92.86,680.83,92.91Z"/><path class="cls-22" d="M680.83,92.91c-.29,0-1-.38-1.23-.45-1.5,3.21-12.51,13-9.46,15.06C673.58,102.56,677.39,97.87,680.83,92.91Z"/><path class="cls-23" d="M757.05,40.82c-.11.48-.26,1-.4,1.43-4.45,14.48-21.14,27.67-42.27,21.28h0a35,35,0,0,1-16.11-10.25,25.46,25.46,0,0,0,2.69,1,24.9,24.9,0,0,0,15.71-.38A11.92,11.92,0,0,1,708.27,43a12.69,12.69,0,0,0,5.25,1.38,11.55,11.55,0,0,1-5.92-13.53l0-.14a12.42,12.42,0,0,0,4.79,2.95,11.13,11.13,0,0,1,.94-15.7A34.48,34.48,0,0,0,733.54,36.6a11.16,11.16,0,0,1,6.54-9.46,12.42,12.42,0,0,1,16.11,5.4,24.94,24.94,0,0,0,8.11-.46,11.62,11.62,0,0,1-6.91,4.53,24.8,24.8,0,0,0,7.13.28A24,24,0,0,1,757.05,40.82Z"/></g><g id="reddit"><path class="cls-24" d="M122.52,226.17c-11.76,2.53-28.35-23.63-33.63-33C69.23,177.22,17,194.88,3.28,169c-2.55-12.91,4.09-26.62,6.78-39,3.78-15.23,17.65-21.09,32-23.32,31.86,6.88,65.27,8.91,97.56,14.4,7.16,1.37,13.41,10.36,12.28,17.5-3.3,15.5-3.84,32.17-11.37,46.34l.07-.08c-1.38,1-8.29,5.81-26.12,5.27l-.65-1.21C110.91,202.54,118.24,213.66,122.52,226.17Z"/><path class="cls-25" d="M140.57,184.85c7.53-14.17,8.07-30.84,11.37-46.33,1.13-7.15-5.12-16.14-12.28-17.51-32.29-5.49-65.7-7.52-97.56-14.4,18.59,2,37.72,4.74,56.58,6.19,15.22,3.56,43.1-.29,52.23,14.12C158,139,149.66,175.28,140.57,184.85Z"/><path class="cls-26" d="M42.1,106.61C25.32,109.83,13,117.16,9.63,131.5c-3.44,12.82-7.17,25-5.94,38.2-9.84-10.54,3-34.32,4.37-47.74C14.87,111.43,29.6,106.09,42.1,106.61Z"/><path class="cls-27" d="M115.63,209.22c-4-6.43-3.06-13.8-1.76-20.39,3.14,3.68-1.89,12,3.07,20.25C116.65,209.08,115.92,209.25,115.63,209.22Z"/><path class="cls-28" d="M115.63,209.22c.29,0,1-.14,1.31-.14.68,3.52,9.07,15.8,5.58,17.09C120.36,220.46,117.78,214.93,115.63,209.22Z"/><g id="Artwork"><g id="g252"><path id="path250" class="cls-23" d="M103.79,153.61a6,6,0,0,0-4.85-6.88,5.6,5.6,0,0,0-4.26,1A28.56,28.56,0,0,0,80,140.25L84.7,128,93,131.17a4.19,4.19,0,1,0,4.83-3.78,4.06,4.06,0,0,0-4,1.8l-9.27-3.62a1.16,1.16,0,0,0-.82,0,1.17,1.17,0,0,0-.57.59l-5.18,13.74a27.92,27.92,0,0,0-16.48,2.57,5.87,5.87,0,0,0-3.73-2.31,6,6,0,0,0-6.74,5,6,6,0,0,0,2.57,6,11.14,11.14,0,0,0-.43,1.79c-1.45,9.15,7.72,18.19,20.53,20.22S98,169.5,99.44,160.34a10.85,10.85,0,0,0,.14-1.78,6.25,6.25,0,0,0,4.21-4.95Zm-40.35-2.06a4.18,4.18,0,1,1,3.46,4.9A4.25,4.25,0,0,1,63.44,151.55Zm21.29,14.86c-3.3,2.46-8.71,1.8-10.29,1.55s-7-1.35-9.3-4.66a1.17,1.17,0,0,1,.25-1.57,1.1,1.1,0,0,1,1.54.24c1.47,2.1,5.17,3.37,7.91,3.8s6.6.37,8.7-1.16a1.08,1.08,0,0,1,1.53.25,1.26,1.26,0,0,1-.34,1.55Zm.36-7.07a4.3,4.3,0,1,1,4.8-3.59A4.26,4.26,0,0,1,85.09,159.34Z"/></g></g></g></g></g></svg>